<?xml version="1.0" encoding="UTF-8"?><svg id="Layer_2" xmlns="http://www.w3.org/2000/svg" viewBox="0 0 1280.9 281.999"><defs><style>.cls-1,.cls-2{stroke-width:.9px;}.cls-1,.cls-2,.cls-3,.cls-4,.cls-5{stroke:#6598cb;}.cls-1,.cls-2,.cls-4,.cls-5{fill:none;}.cls-2,.cls-4,.cls-5{stroke-linecap:round;stroke-linejoin:round;}.cls-3{fill:#3d5184;}.cls-4{stroke-width:.8px;}.cls-5{stroke-width:1.2px;}.cls-6{opacity:.24;}</style></defs><g id="Layer_1-2"><g class="cls-6"><path class="cls-5" d="M2.723,242.714h636.767"/><path class="cls-2" d="M580.011,182.239c-2.852-.443-9.859-1.161-25.291-1.161s-22.438.718-25.29,1.161c-.133.025-.256.089-.353.184-.097.095-.163.217-.191.35s-.016.271.034.397c.051.126.138.234.249.311,4.791,3.049,19.75,13.266,19.75,21.93v37.303h11.603v-37.302c0-8.663,14.958-18.88,19.749-21.929.113-.077.2-.185.251-.311.051-.127.063-.265.035-.399-.028-.133-.095-.255-.192-.35s-.221-.159-.354-.184Z"/><path class="cls-2" d="M580.008,182.238c-.857-.132-2.081-.289-3.79-.445-6.208,4.668-16.834,13.817-16.834,21.765v39.155h1.139v-37.295c0-8.663,14.957-18.88,19.748-21.929.115-.076.204-.185.256-.312.053-.128.066-.268.037-.403-.028-.135-.096-.258-.195-.354-.099-.095-.225-.159-.361-.182Z"/><path class="cls-2" d="M529.429,182.239c.858-.132,2.081-.288,3.792-.444,6.208,4.667,16.834,13.817,16.834,21.764v39.155h-1.137v-37.294c0-8.664-14.957-18.881-19.748-21.93-.115-.076-.204-.184-.257-.311-.052-.127-.065-.267-.037-.402.028-.135.095-.258.194-.354.099-.096.224-.16.359-.184Z"/><path class="cls-2" d="M543.407,181.225c2.917,5.363,8.559,16.47,8.559,22.477v38.997h1.7v-61.62c-3.974.008-7.368.065-10.259.146Z"/><path class="cls-2" d="M566.03,181.226c-2.892-.088-6.286-.145-10.259-.153v61.636h1.7v-38.997c0-6.008,5.633-17.116,8.559-22.486Z"/><path class="cls-1" d="M523.988,176.262c-3.133-.488-10.833-1.276-27.799-1.276s-24.655.79-27.799,1.276c-.15.023-.289.091-.399.195-.11.104-.186.239-.217.388-.031.148-.017.303.042.442.059.14.159.258.287.339,5.263,3.352,21.701,14.579,21.701,24.098v40.99h12.749v-40.99c0-9.519,16.438-20.746,21.701-24.098.128-.079.228-.196.288-.334s.077-.291.048-.439c-.029-.148-.102-.284-.209-.389-.108-.106-.245-.176-.393-.202Z"/><path class="cls-2" d="M523.988,176.262c-3.133-.488-10.833-1.276-27.799-1.276s-24.655.79-27.799,1.276c-.15.023-.289.091-.399.195-.11.104-.186.239-.217.388-.031.148-.017.303.042.442.059.14.159.258.287.339,5.263,3.352,21.701,14.579,21.701,24.098v40.99h12.749v-40.99c0-9.519,16.438-20.746,21.701-24.098.128-.079.228-.196.288-.334s.077-.291.048-.439c-.029-.148-.102-.284-.209-.389-.108-.106-.245-.176-.393-.202Z"/><path class="cls-2" d="M523.987,176.263c-.937-.146-2.288-.318-4.167-.489-6.821,5.128-18.5,15.183-18.5,23.917v43.025h1.251v-40.99c0-9.519,16.438-20.745,21.701-24.097.128-.081.229-.199.289-.339.059-.14.074-.294.043-.443-.031-.149-.107-.285-.217-.389-.11-.104-.25-.172-.4-.195Z"/><path class="cls-2" d="M468.406,176.263c.937-.146,2.288-.318,4.167-.49,6.821,5.128,18.5,15.183,18.5,23.917v43.026h-1.251v-40.99c0-9.519-16.438-20.746-21.7-24.098-.129-.08-.23-.199-.289-.338-.06-.14-.075-.295-.044-.444.031-.148.107-.284.217-.388.111-.105.25-.173.4-.195Z"/><path class="cls-2" d="M483.767,175.156c3.213,5.892,9.406,18.098,9.406,24.699v42.869h1.868v-67.737c-4.368.011-8.1.073-11.274.169Z"/><path class="cls-2" d="M508.628,175.156c-3.176-.096-6.907-.16-11.274-.172v67.74h1.869v-42.869c0-6.607,6.191-18.804,9.405-24.699Z"/><path class="cls-1" d="M563.766,161.237c-3.842-.598-13.282-1.566-34.073-1.566s-30.232.969-34.074,1.566c-.183.028-.353.113-.487.241-.135.128-.226.294-.264.476-.037.182-.018.371.055.542.073.171.196.315.353.414,6.453,4.109,26.608,17.866,26.608,29.548v50.257h15.632v-50.258c0-11.672,20.155-25.438,26.607-29.549.156-.1.279-.245.35-.417.072-.171.09-.361.051-.543-.039-.182-.132-.347-.268-.474-.135-.128-.306-.21-.49-.237Z"/><path class="cls-2" d="M563.766,161.237c-3.842-.598-13.282-1.566-34.073-1.566s-30.232.969-34.074,1.566c-.183.028-.353.113-.487.241-.135.128-.226.294-.264.476-.037.182-.018.371.055.542.073.171.196.315.353.414,6.453,4.109,26.608,17.866,26.608,29.548v50.257h15.632v-50.258c0-11.672,20.155-25.438,26.607-29.549.156-.1.279-.245.35-.417.072-.171.09-.361.051-.543-.039-.182-.132-.347-.268-.474-.135-.128-.306-.21-.49-.237Z"/><path class="cls-2" d="M563.766,161.238c-1.15-.172-2.804-.39-5.109-.6-8.363,6.288-22.681,18.616-22.681,29.324v52.752h1.534v-50.256c0-11.672,20.154-25.438,26.606-29.549.157-.099.279-.244.351-.415.072-.171.09-.36.052-.542-.038-.181-.13-.347-.265-.475-.134-.127-.305-.211-.488-.239Z"/><path class="cls-2" d="M495.618,161.237c1.15-.171,2.804-.39,5.109-.599,8.364,6.287,22.682,18.615,22.682,29.323v52.753h-1.533v-50.257c0-11.671-20.154-25.437-26.608-29.548-.156-.1-.279-.245-.351-.416-.072-.171-.09-.36-.052-.541.038-.182.131-.348.265-.475.135-.128.305-.211.488-.24Z"/><path class="cls-2" d="M514.449,159.879c3.947,7.226,11.533,22.191,11.533,30.284v52.552h2.29v-83.042c-5.362.012-9.928.088-13.823.206Z"/><path class="cls-2" d="M544.934,159.879c-3.895-.117-8.469-.194-13.825-.206v83.042h2.286v-52.552c0-8.093,7.596-23.058,11.539-30.284Z"/><path class="cls-2" d="M455.7,242.714c0-78.225-25.515-162.836-25.515-162.836h-6.379s11.461,30.683-11.154,43.104c0,0,11.841,102.31,19.489,119.74l23.559-.007Z"/><path class="cls-2" d="M430.186,79.878s25.165,36.368,24.416,46.546c-.748,10.177-4.767,44.193-4.509,45.972"/><path class="cls-2" d="M432.14,242.714h-12.909v-68.545"/><path class="cls-2" d="M425,83.866h6.338"/><path class="cls-2" d="M425.987,88.556h6.684"/><path class="cls-2" d="M426.561,93.244h7.328"/><path class="cls-2" d="M426.698,97.935h8.408"/><path class="cls-2" d="M426.319,102.624h9.966"/><path class="cls-2" d="M426,107.316h11.433"/><path class="cls-2" d="M427.115,112.004h11.526"/><path class="cls-2" d="M428.197,116.693h11.433"/><path class="cls-2" d="M429.248,121.383h11.433"/><path class="cls-2" d="M430.271,126.073h11.433"/><path class="cls-2" d="M431.259,130.761h11.433"/><path class="cls-2" d="M432.222,135.451h11.432"/><path class="cls-2" d="M433.146,140.142h11.433"/><path class="cls-2" d="M434.046,144.832h11.433"/><path class="cls-2" d="M434.912,149.52h11.433"/><path class="cls-2" d="M435.745,154.209h11.368"/><path class="cls-2" d="M436.545,158.9h11.433"/><path class="cls-2" d="M437.312,163.588h11.432"/><path class="cls-2" d="M438.128,168.277h11.35"/><path class="cls-2" d="M438.861,172.967h11.231"/><path class="cls-2" d="M439.407,177.658h11.433"/><path class="cls-2" d="M440.033,182.346h11.433"/><path class="cls-2" d="M440.621,187.035h11.433"/><path class="cls-2" d="M441.172,191.726h11.433"/><path class="cls-2" d="M441.682,196.415h11.432"/><path class="cls-2" d="M442.19,201.103h11.395"/><path class="cls-2" d="M442.58,205.795h11.433"/><path class="cls-2" d="M442.964,210.483h11.433"/><path class="cls-2" d="M443.304,215.172h11.318"/><path class="cls-2" d="M443.595,219.862h11.432"/><path class="cls-2" d="M443.836,224.552h11.433"/><path class="cls-2" d="M444.024,229.242h11.433"/><path class="cls-2" d="M444.265,233.931h11.314"/><path class="cls-2" d="M444.265,238.62h11.432"/><path class="cls-5" d="M357.646,242.712h-64.494l14.838-113.619h34.821l14.835,113.619Z"/><path class="cls-5" d="M339.017,232.104l-9.242-70.779h-8.752l-10.628,81.382"/><path class="cls-5" d="M334.655,224.385h-21.872l.74-5.669h21.132v5.669Z"/><path class="cls-5" d="M334.658,218.729h-10.937v5.662h10.937v-5.662Z"/><path class="cls-5" d="M340.604,242.714h-30.216l1.386-10.61h31.487l-2.657,10.61Z"/><path class="cls-5" d="M316.655,194.739l3.722,23.989"/><path class="cls-5" d="M320.359,175.3l6.739,43.426"/><path class="cls-5" d="M329.249,161.332l-8.905,57.396"/><path class="cls-5" d="M325.945,224.39l-1.197,7.721"/><path class="cls-5" d="M322.454,232.104l-1.197-7.714"/><path class="cls-5" d="M319.019,224.39l-1.197,7.714"/><path class="cls-5" d="M315.521,232.104l-1.197-7.714"/><path class="cls-5" d="M332.876,224.39l-1.196,7.714"/><path class="cls-5" d="M329.384,232.104l-1.196-7.714"/><path class="cls-5" d="M335.855,232.104l-1.199-7.714"/><path class="cls-5" d="M324.912,161.332l8.905,57.396"/><path class="cls-5" d="M332.604,182.993l-5.543,35.735"/><path class="cls-5" d="M335.679,206.51l-1.896,12.218"/><path class="cls-5" d="M322.526,161.332l-2.182,14.065"/><path class="cls-5" d="M307.562,132.35h4.871"/><path class="cls-5" d="M307.136,135.601h4.871"/><path class="cls-5" d="M306.715,138.856h4.871"/><path class="cls-5" d="M306.284,142.11h4.872"/><path class="cls-5" d="M305.864,145.361h4.872"/><path class="cls-5" d="M305.44,148.616h4.872"/><path class="cls-5" d="M305.016,151.867h4.871"/><path class="cls-5" d="M304.589,155.121h4.871"/><path class="cls-5" d="M304.164,158.374h4.871"/><path class="cls-5" d="M303.739,161.627h4.872"/><path class="cls-5" d="M303.314,164.879h4.872"/><path class="cls-5" d="M302.889,168.133h4.871"/><path class="cls-5" d="M302.463,171.385h4.871"/><path class="cls-5" d="M302.04,174.638h4.871"/><path class="cls-5" d="M301.614,177.89h4.872"/><path class="cls-5" d="M301.188,181.145h4.872"/><path class="cls-5" d="M300.765,184.396h4.871"/><path class="cls-5" d="M300.339,187.65h4.871"/><path class="cls-5" d="M299.918,190.902h4.871"/><path class="cls-5" d="M299.49,194.157h4.872"/><path class="cls-5" d="M299.062,197.408h4.872"/><path class="cls-5" d="M298.639,200.662h4.871"/><path class="cls-5" d="M298.216,203.914h4.871"/><path class="cls-5" d="M297.793,207.168h4.871"/><path class="cls-5" d="M297.365,210.42h4.872"/><path class="cls-5" d="M296.943,213.672h4.872"/><path class="cls-5" d="M296.519,216.926h4.871"/><path class="cls-5" d="M296.089,220.179h4.871"/><path class="cls-5" d="M295.669,223.432h4.871"/><path class="cls-5" d="M295.24,226.686h4.872"/><path class="cls-5" d="M294.817,229.937h4.872"/><path class="cls-5" d="M294.394,233.191h4.871"/><path class="cls-5" d="M293.967,236.443h4.871"/><path class="cls-5" d="M293.543,239.696h4.871"/><path class="cls-5" d="M343.229,132.35h-4.872"/><path class="cls-5" d="M343.655,135.602h-4.872"/><path class="cls-5" d="M344.079,138.856h-4.871"/><path class="cls-5" d="M344.503,142.111h-4.871"/><path class="cls-5" d="M344.928,145.361h-4.871"/><path class="cls-5" d="M345.355,148.616h-4.872"/><path class="cls-5" d="M345.776,151.868h-4.872"/><path class="cls-5" d="M346.204,155.121h-4.871"/><path class="cls-5" d="M346.629,158.374h-4.871"/><path class="cls-5" d="M347.051,161.628h-4.871"/><path class="cls-5" d="M347.48,164.879h-4.872"/><path class="cls-5" d="M347.901,168.134h-4.872"/><path class="cls-5" d="M348.324,171.385h-4.871"/><path class="cls-5" d="M348.75,174.639h-4.871"/><path class="cls-5" d="M349.176,177.891h-4.871"/><path class="cls-5" d="M349.6,181.144h-4.871"/><path class="cls-5" d="M350.026,184.397h-4.872"/><path class="cls-5" d="M350.451,187.651h-4.871"/><path class="cls-5" d="M350.876,190.902h-4.871"/><path class="cls-5" d="M351.3,194.157h-4.871"/><path class="cls-5" d="M351.726,197.408h-4.872"/><path class="cls-5" d="M352.15,200.662h-4.872"/><path class="cls-5" d="M352.575,203.914h-4.871"/><path class="cls-5" d="M353,207.169h-4.871"/><path class="cls-5" d="M353.424,210.42h-4.871"/><path class="cls-5" d="M353.852,213.673h-4.872"/><path class="cls-5" d="M354.276,216.926h-4.872"/><path class="cls-5" d="M354.699,220.18h-4.871"/><path class="cls-5" d="M355.126,223.432h-4.871"/><path class="cls-5" d="M355.551,226.685h-4.871"/><path class="cls-5" d="M355.972,229.938h-4.871"/><path class="cls-5" d="M356.401,233.191h-4.872"/><path class="cls-5" d="M356.822,236.443h-4.872"/><path class="cls-5" d="M357.246,239.697h-4.871"/><path class="cls-2" d="M241.164,169.039c0-23.94,15.847-89.466,15.847-89.466,0,0-15.847-7.636-15.847-2.477v165.609h32.947V60.827l-7.207-8.323v10.663l-17.924,13.208"/><path class="cls-2" d="M247.39,123.841v118.873"/><path class="cls-2" d="M259.618,242.714s14.487-73.726,14.487-99.395"/><path class="cls-2" d="M266.896,63.167v139.251"/><path class="cls-2" d="M260.519,77.338v2.338"/><path class="cls-2" d="M263.372,81.237v2.338"/><path class="cls-2" d="M258.715,87.493v2.338"/><path class="cls-2" d="M261.24,89.834v2.338"/><path class="cls-2" d="M264.422,96.949v2.338"/><path class="cls-2" d="M256.771,99.289v2.338"/><path class="cls-2" d="M261.24,102.638v2.338"/><path class="cls-2" d="M255.042,109.884v2.338"/><path class="cls-2" d="M259.604,113.342v2.338"/><path class="cls-2" d="M263.372,120.471v2.338"/><path class="cls-2" d="M254.084,118.983v2.339"/><path class="cls-2" d="M257.634,124.106v2.338"/><path class="cls-2" d="M251.588,129.88v2.338"/><path class="cls-2" d="M255.698,135.357v2.338"/><path class="cls-2" d="M262.659,129.88v2.338"/><path class="cls-2" d="M260.331,139.827v2.338"/><path class="cls-2" d="M252.215,144.443v2.338"/><path class="cls-2" d="M255.698,150.857v2.338"/><path class="cls-2" d="M263.372,147.188v2.338"/><path class="cls-2" d="M260.741,156.651v2.339"/><path class="cls-2" d="M251.588,162.775v2.338"/><path class="cls-2" d="M257.143,169.702v2.338"/><path class="cls-2" d="M263.372,165.114v2.338"/><path class="cls-2" d="M261.223,172.733v2.338"/><path class="cls-2" d="M251.588,176.538v2.338"/><path class="cls-2" d="M255.042,182.44v2.338"/><path class="cls-2" d="M262.659,180.1v2.338"/><path class="cls-2" d="M259.289,187.904v2.338"/><path class="cls-2" d="M264.246,193.018v2.338"/><path class="cls-2" d="M250.157,189.609v2.339"/><path class="cls-2" d="M254.537,193.018v2.338"/><path class="cls-2" d="M252.17,200.081v2.338"/><path class="cls-2" d="M258.777,197.74v2.338"/><path class="cls-2" d="M261.857,203.241v2.338"/><path class="cls-2" d="M257.143,206.179v2.338"/><path class="cls-2" d="M250.157,209.219v2.338"/><path class="cls-2" d="M253.912,215.303v2.338"/><path class="cls-2" d="M260.286,210.777v2.338"/><path class="cls-2" d="M258.423,220.598v2.338"/><path class="cls-2" d="M250.157,222.554v2.338"/><path class="cls-2" d="M255.042,226.738v2.338"/><path class="cls-2" d="M251.588,231.463v2.338"/><path class="cls-2" d="M256.658,236.517v2.338"/><path class="cls-2" d="M250.659,238.1v2.338"/><path class="cls-2" d="M214.514,149.51c0,1.386-.411,2.741-1.181,3.894-.769,1.152-1.862,2.05-3.142,2.58-1.279.531-2.687.669-4.044.399-1.358-.271-2.606-.939-3.584-1.919-.979-.98-1.646-2.229-1.916-3.589s-.131-2.769.399-4.049c.53-1.281,1.427-2.376,2.578-3.146,1.151-.77,2.505-1.181,3.889-1.181.92,0,1.831.181,2.68.533.85.353,1.622.869,2.272,1.52.65.651,1.166,1.424,1.517,2.275.352.851.533,1.762.532,2.683Z"/><path class="cls-2" d="M209.187,156.325c-1.519-.376-2.869-1.251-3.833-2.485-.965-1.234-1.489-2.755-1.489-4.322s.524-3.089,1.489-4.322c.964-1.234,2.314-2.109,3.833-2.485"/><path class="cls-2" d="M204.248,143.307h3.356"/><path class="cls-2" d="M202.419,144.7h3.444"/><path class="cls-2" d="M201.396,146.093h3.357"/><path class="cls-2" d="M200.806,147.488h3.356"/><path class="cls-2" d="M200.534,148.881h3.374"/><path class="cls-2" d="M200.554,150.275h3.356"/><path class="cls-2" d="M200.851,151.667h3.354"/><path class="cls-2" d="M201.475,153.06h3.354"/><path class="cls-2" d="M202.55,154.455h3.356"/><path class="cls-2" d="M204.299,155.848h3.576"/><path class="cls-2" d="M220.812,184.174c.306,1.905.194,3.853-.328,5.71-.522,1.858-1.442,3.579-2.696,5.044-1.254,1.465-2.811,2.639-4.564,3.441-1.753.802-3.659,1.212-5.586,1.201-1.928-.01-3.829-.44-5.573-1.261-1.745-.821-3.289-2.012-4.527-3.49-1.238-1.479-2.14-3.21-2.642-5.072-.502-1.863-.593-3.813-.267-5.714"/><path class="cls-2" d="M195.214,181.808c.928-2.587,2.634-4.821,4.883-6.397s4.931-2.414,7.676-2.401c2.745.013,5.419.878,7.653,2.476,2.234,1.597,3.918,3.849,4.821,6.444"/><path class="cls-2" d="M201.95,180.871c.861-1.923,2.165-3.614,3.806-4.933,1.641-1.32,3.571-2.23,5.631-2.657"/><path class="cls-2" d="M210.889,199.2c-1.701-.422-3.302-1.177-4.71-2.221-1.409-1.044-2.597-2.357-3.497-3.863-.899-1.506-1.492-3.175-1.745-4.912-.252-1.736-.159-3.506.275-5.206"/><path class="cls-2" d="M201.522,174.542h6.361"/><path class="cls-2" d="M198.057,177.182h6.528"/><path class="cls-2" d="M196.117,179.822h6.359"/><path class="cls-2" d="M194.481,185.106h6.395"/><path class="cls-2" d="M194.519,187.746h6.36"/><path class="cls-2" d="M195.077,190.387h6.359"/><path class="cls-2" d="M196.266,193.029h6.359"/><path class="cls-2" d="M198.305,195.669h6.36"/><path class="cls-2" d="M201.622,198.309h6.778"/><path class="cls-2" d="M184.146,242.715l2.679-83.542,2.678,83.542h-5.357Z"/><path class="cls-2" d="M214.091,197.948c-.827.49-1.508,1.194-1.97,2.038-.461.844-.687,1.797-.653,2.759l1.582,39.971h-11.076l1.589-40.146c.033-.969-.193-1.929-.655-2.781-.461-.852-1.142-1.565-1.97-2.066"/><path class="cls-2" d="M222.106,185.162v-2.061c0-1.327-6.534-2.406-14.586-2.406s-14.585,1.076-14.585,2.406v2.061"/><path class="cls-2" d="M220.945,186.103c.746-.289,1.161-.607,1.161-.94,0-1.326-6.534-2.405-14.586-2.405s-14.585,1.075-14.585,2.405c0,.388.557.754,1.544,1.079"/><path class="cls-2" d="M203.182,155.018c.632.496,1.148,1.126,1.51,1.843.362.718.563,1.507.586,2.311l-.444,11.22c.042.799-.172,1.591-.61,2.261-.438.669-1.078,1.181-1.827,1.462"/><path class="cls-2" d="M211.838,155.018c-.633.496-1.149,1.125-1.512,1.843-.362.718-.563,1.507-.587,2.311l.445,11.22c-.008.768.22,1.519.652,2.153.432.635,1.047,1.121,1.764,1.395"/><path class="cls-2" d="M204.227,143.314c1.153-.766,1.733-1.409,1.779-2.587l1.5-37.87,1.499,37.87c.047,1.178.625,1.819,1.78,2.587"/><path class="cls-2" d="M206.844,119.739h1.34"/><path class="cls-2" d="M185.957,186.241h1.736"/><path class="cls-2" d="M171.418,154.211h1.709"/><path class="cls-2" d="M177.494,199.485c-.721.517-1.298,1.21-1.676,2.014-.378.803-.544,1.69-.482,2.576l1.715,38.638h-9.567l1.716-38.638c.061-.886-.105-1.773-.483-2.576-.378-.804-.955-1.497-1.676-2.014"/><path class="cls-2" d="M168.783,181.315c.462-.214.853-.557,1.125-.987.273-.431.415-.931.411-1.441l1.951-43.931,1.946,43.936c-.005.51.138,1.01.41,1.441.273.43.663.773,1.125.987"/><path class="cls-2" d="M182.38,190.822c0,2.002-.593,3.959-1.704,5.623-1.111,1.665-2.69,2.962-4.537,3.728-1.847.767-3.88.967-5.841.576-1.961-.39-3.763-1.354-5.177-2.77-1.414-1.415-2.376-3.219-2.767-5.182-.39-1.964-.189-3.999.576-5.849.765-1.849,2.061-3.43,3.723-4.542,1.663-1.113,3.617-1.706,5.617-1.706,1.328-.001,2.643.26,3.87.769,1.227.508,2.341,1.254,3.28,2.194s1.684,2.056,2.192,3.285c.507,1.228.769,2.544.768,3.874Z"/><path class="cls-2" d="M174.698,200.652c-2.227-.55-4.202-1.842-5.599-3.664-1.398-1.823-2.134-4.066-2.089-6.363.045-2.297.868-4.51,2.336-6.276,1.467-1.766,3.491-2.98,5.738-3.443"/><path class="cls-2" d="M167.562,181.867h4.846"/><path class="cls-2" d="M164.918,183.879h4.973"/><path class="cls-2" d="M163.439,185.89h4.846"/><path class="cls-2" d="M162.59,187.902h4.845"/><path class="cls-2" d="M162.197,189.915h4.872"/><path class="cls-2" d="M162.223,191.927h4.845"/><path class="cls-2" d="M162.65,193.939h4.844"/><path class="cls-2" d="M163.557,195.95h4.844"/><path class="cls-2" d="M165.107,197.962h4.846"/><path class="cls-2" d="M167.635,199.974h5.163"/><path class="cls-2" d="M391.591,160.224c-8.253-2.446-17.361,0-17.702,0v-13.743s-.507-2.785,8.847-2.785,8.846,2.785,8.846,2.785l.009,13.743Z"/><path class="cls-2" d="M373.887,160.226c0,4.133,4.892,3.796,4.892,7.846v5.315"/><path class="cls-2" d="M391.593,160.226c0,4.133-4.892,3.796-4.892,7.846v5.315"/><path class="cls-2" d="M378.3,166.15c2.852-1.134,6.029-1.134,8.881,0"/><path class="cls-2" d="M391.588,153.283c1.373-.244,2.188-.546,2.188-.872,0-.808-4.942-1.461-11.037-1.461s-11.038.655-11.038,1.461c0,.326.813.628,2.188.872"/><path class="cls-2" d="M387.341,139.812c.714-.213,1.136-.478,1.136-.765,0-.708-2.565-1.28-5.729-1.28s-5.729.574-5.729,1.28c0,.287.422.552,1.135.765"/><path class="cls-2" d="M391.588,156.143c1.373-.244,2.188-.547,2.188-.873,0-.808-4.942-1.46-11.037-1.46s-11.038.654-11.038,1.46c0,.328.813.63,2.188.873"/><path class="cls-2" d="M391.588,158.982c1.373-.244,2.188-.545,2.188-.873,0-.805-4.942-1.46-11.037-1.46s-11.038.655-11.038,1.46c0,.328.813.631,2.188.873"/><path class="cls-2" d="M387.463,242.715h-9.438l.762-56.916h7.921l.755,56.916Z"/><path class="cls-2" d="M386.7,185.798c0-1.632,3.973-3.362,6.361-4.57,2.085-1.055,1.701-2.383,1.701-2.383,0-.872-5.383-1.582-12.022-1.582s-12.023.708-12.023,1.582c0,0-.384,1.328,1.701,2.383,2.389,1.203,6.361,2.936,6.361,4.57"/><path class="cls-2" d="M394.763,178.847c0-3.015-8.065-3.058-8.065-5.461"/><path class="cls-2" d="M370.717,178.847c0-3.015,8.064-3.058,8.064-5.461"/><path class="cls-2" d="M387.333,138.282v5.764"/><path class="cls-2" d="M378.143,138.282v5.712"/><path class="cls-2" d="M380.037,137.916l2.701-84.909,2.701,84.909"/><path class="cls-2" d="M380.155,134.18c-1.577-.172-2.642-.515-2.642-.897,0-.57,2.338-1.03,5.225-1.03s5.223.462,5.223,1.03c0,.385-1.064.72-2.643.897"/><path class="cls-2" d="M380.324,128.855c-1.451-.172-2.429-.474-2.429-.828,0-.528,2.167-.957,4.842-.957s4.84.428,4.84.957c0,.354-.978.665-2.43.828"/><path class="cls-2" d="M618.437,242.715h-13.109V87.041l13.109,13.125v142.549Z"/><path class="cls-2" d="M618.437,100.167l-13.109-13.125v-12.287l13.109,13.125v12.287Z"/><path class="cls-2" d="M618.436,237.524l-13.109-13.743,13.109-13.744-13.109-13.743,13.109-13.744-13.109-13.743,13.109-13.744-13.109-13.743,13.109-13.744-13.109-13.743,13.109-13.744"/><path class="cls-2" d="M605.327,103.931h-14.836v138.783h14.836V103.931Z"/><path class="cls-2" d="M592.625,115.122v-14.549"/><path class="cls-2" d="M595.267,115.122v-14.549"/><path class="cls-2" d="M597.91,115.122v-14.549"/><path class="cls-2" d="M600.551,115.122v-14.549"/><path class="cls-2" d="M603.193,115.122v-14.549"/><path class="cls-2" d="M605.327,128.839h-11.078v113.875h11.078v-113.875Z"/><path class="cls-2" d="M598.707,132.235h-2.172v2.175h2.172v-2.175Z"/><path class="cls-2" d="M603.041,132.235h-2.172v2.175h2.172v-2.175Z"/><path class="cls-2" d="M598.707,136.317h-2.172v2.175h2.172v-2.175Z"/><path class="cls-2" d="M603.041,136.317h-2.172v2.175h2.172v-2.175Z"/><path class="cls-2" d="M598.707,140.4h-2.172v2.175h2.172v-2.175Z"/><path class="cls-2" d="M603.041,140.4h-2.172v2.175h2.172v-2.175Z"/><path class="cls-2" d="M598.707,144.482h-2.172v2.175h2.172v-2.175Z"/><path class="cls-2" d="M603.041,144.482h-2.172v2.175h2.172v-2.175Z"/><path class="cls-2" d="M598.707,148.567h-2.172v2.174h2.172v-2.174Z"/><path class="cls-2" d="M603.041,148.567h-2.172v2.174h2.172v-2.174Z"/><path class="cls-2" d="M598.707,152.649h-2.172v2.174h2.172v-2.174Z"/><path class="cls-2" d="M603.041,152.649h-2.172v2.174h2.172v-2.174Z"/><path class="cls-2" d="M598.707,156.731h-2.172v2.175h2.172v-2.175Z"/><path class="cls-2" d="M603.041,156.731h-2.172v2.175h2.172v-2.175Z"/><path class="cls-2" d="M598.707,160.813h-2.172v2.175h2.172v-2.175Z"/><path class="cls-2" d="M603.041,160.813h-2.172v2.175h2.172v-2.175Z"/><path class="cls-2" d="M598.707,164.897h-2.172v2.174h2.172v-2.174Z"/><path class="cls-2" d="M603.041,164.897h-2.172v2.174h2.172v-2.174Z"/><path class="cls-2" d="M598.707,168.978h-2.172v2.175h2.172v-2.175Z"/><path class="cls-2" d="M603.041,168.978h-2.172v2.175h2.172v-2.175Z"/><path class="cls-2" d="M598.707,173.062h-2.172v2.175h2.172v-2.175Z"/><path class="cls-2" d="M603.041,173.062h-2.172v2.175h2.172v-2.175Z"/><path class="cls-2" d="M598.707,177.144h-2.172v2.175h2.172v-2.175Z"/><path class="cls-2" d="M603.041,177.144h-2.172v2.175h2.172v-2.175Z"/><path class="cls-2" d="M598.707,181.228h-2.172v2.175h2.172v-2.175Z"/><path class="cls-2" d="M603.041,181.228h-2.172v2.175h2.172v-2.175Z"/><path class="cls-2" d="M598.707,185.309h-2.172v2.175h2.172v-2.175Z"/><path class="cls-2" d="M603.041,185.309h-2.172v2.175h2.172v-2.175Z"/><path class="cls-2" d="M598.707,189.391h-2.172v2.175h2.172v-2.175Z"/><path class="cls-2" d="M603.041,189.391h-2.172v2.175h2.172v-2.175Z"/><path class="cls-2" d="M598.707,193.475h-2.172v2.175h2.172v-2.175Z"/><path class="cls-2" d="M603.041,193.475h-2.172v2.175h2.172v-2.175Z"/><path class="cls-2" d="M598.707,197.556h-2.172v2.175h2.172v-2.175Z"/><path class="cls-2" d="M603.041,197.556h-2.172v2.175h2.172v-2.175Z"/><path class="cls-2" d="M598.707,201.639h-2.172v2.175h2.172v-2.175Z"/><path class="cls-2" d="M603.041,201.639h-2.172v2.175h2.172v-2.175Z"/><path class="cls-2" d="M598.707,205.722h-2.172v2.175h2.172v-2.175Z"/><path class="cls-2" d="M603.041,205.722h-2.172v2.175h2.172v-2.175Z"/><path class="cls-2" d="M598.707,209.804h-2.172v2.175h2.172v-2.175Z"/><path class="cls-2" d="M603.041,209.804h-2.172v2.175h2.172v-2.175Z"/><path class="cls-2" d="M598.707,213.887h-2.172v2.175h2.172v-2.175Z"/><path class="cls-2" d="M603.041,213.887h-2.172v2.175h2.172v-2.175Z"/><path class="cls-2" d="M598.707,217.97h-2.172v2.175h2.172v-2.175Z"/><path class="cls-2" d="M603.041,217.97h-2.172v2.175h2.172v-2.175Z"/><path class="cls-2" d="M598.707,222.053h-2.172v2.175h2.172v-2.175Z"/><path class="cls-2" d="M603.041,222.053h-2.172v2.175h2.172v-2.175Z"/><path class="cls-2" d="M598.707,226.135h-2.172v2.175h2.172v-2.175Z"/><path class="cls-2" d="M603.041,226.135h-2.172v2.175h2.172v-2.175Z"/><path class="cls-2" d="M598.707,230.218h-2.172v2.175h2.172v-2.175Z"/><path class="cls-2" d="M603.041,230.218h-2.172v2.175h2.172v-2.175Z"/><path class="cls-2" d="M598.707,234.302h-2.172v2.175h2.172v-2.175Z"/><path class="cls-2" d="M603.041,234.302h-2.172v2.175h2.172v-2.175Z"/><path class="cls-2" d="M598.707,238.384h-2.172v2.175h2.172v-2.175Z"/><path class="cls-2" d="M603.041,238.384h-2.172v2.175h2.172v-2.175Z"/><path class="cls-2" d="M605.329,89.254h-8.792v14.676h8.792v-14.676Z"/><path class="cls-2" d="M605.327,86.659h-6.62v2.594h6.62v-2.594Z"/><path class="cls-2" d="M54.62,242.713c4.215-31.615,6.622-63.445,7.207-95.335.656-49.648-19.272-95.72-28.015-87.544-14.909,13.941-8.793,172.053-8.793,182.879h29.601Z"/><path class="cls-2" d="M35.941,58.887s30.282,24.566,12.099,183.819"/><path class="cls-2" d="M35.941,58.887s23.101,24.73,8.809,183.819"/><path class="cls-2" d="M35.941,58.887s17.03,19.475,5.522,183.819"/><path class="cls-2" d="M35.941,58.887s8.104,22.923,2.231,183.819"/><path class="cls-2" d="M35.941,58.887s-14.185,11.588-7.632,183.819"/><path class="cls-2" d="M35.943,58.887s-7.122,13.951-4.344,183.819"/><path class="cls-2" d="M35.939,58.887s0,14.67-1.054,183.819"/><path class="cls-2" d="M43.846,73.042h3.897"/><path class="cls-2" d="M46.219,80.338h4.549"/><path class="cls-2" d="M48.076,87.631h5.185"/><path class="cls-2" d="M49.549,94.928h5.803"/><path class="cls-2" d="M50.736,102.223h6.386"/><path class="cls-2" d="M51.676,109.518h6.913"/><path class="cls-2" d="M52.41,116.813h7.366"/><path class="cls-2" d="M52.975,124.109h7.723"/><path class="cls-2" d="M53.389,131.404h7.967"/><path class="cls-2" d="M53.646,138.7h8.09"/><path class="cls-2" d="M53.855,145.994h8.185"/><path class="cls-2" d="M53.855,153.291h7.881"/><path class="cls-2" d="M53.795,160.585h7.721"/><path class="cls-2" d="M53.646,167.88h7.594"/><path class="cls-2" d="M53.412,175.175h7.481"/><path class="cls-2" d="M53.096,182.47h7.378"/><path class="cls-2" d="M52.682,189.766h7.311"/><path class="cls-2" d="M52.244,197.062h7.198"/><path class="cls-2" d="M51.723,204.355h7.116"/><path class="cls-2" d="M51.137,211.652h7.033"/><path class="cls-2" d="M50.496,218.946h7.05"/><path class="cls-2" d="M49.799,226.241h6.86"/><path class="cls-2" d="M49.053,233.537h6.755"/><path class="cls-2" d="M48.256,240.833h6.623"/><path class="cls-2" d="M99.213,123.625h-15.932v119.005h15.932v-119.005Z"/><path class="cls-2" d="M95.921,127.842h-9.341v2.761h9.341v-2.761Z"/><path class="cls-2" d="M95.921,134.173h-9.341v11.34h9.341v-11.34Z"/><path class="cls-2" d="M86.58,145.515h9.341"/><path class="cls-2" d="M86.58,149.932h9.341"/><path class="cls-2" d="M86.58,154.35h9.341"/><path class="cls-2" d="M86.58,158.769h9.341"/><path class="cls-2" d="M86.58,163.186h9.341"/><path class="cls-2" d="M86.58,167.605h9.341"/><path class="cls-2" d="M86.58,172.022h9.341"/><path class="cls-2" d="M86.58,176.44h9.341"/><path class="cls-2" d="M86.58,180.858h9.341"/><path class="cls-2" d="M86.58,185.275h9.341"/><path class="cls-2" d="M86.58,189.693h9.341"/><path class="cls-2" d="M86.58,194.112h9.341"/><path class="cls-2" d="M86.58,198.529h9.341"/><path class="cls-2" d="M86.58,202.947h9.341"/><path class="cls-2" d="M86.58,207.366h9.341"/><path class="cls-2" d="M86.58,211.783h9.341"/><path class="cls-2" d="M86.58,216.201h9.341"/><path class="cls-2" d="M86.58,220.619h9.341"/><path class="cls-2" d="M86.58,225.037h9.341"/><path class="cls-2" d="M86.58,229.456h9.341"/><path class="cls-2" d="M86.58,233.873h9.341"/><path class="cls-2" d="M86.58,238.29h9.341"/><path class="cls-2" d="M138.445,127.842h-9.341v2.761h9.341v-2.761Z"/><path class="cls-2" d="M138.445,134.173h-9.341v11.34h9.341v-11.34Z"/><path class="cls-2" d="M129.104,145.515h9.341"/><path class="cls-2" d="M129.104,149.932h9.341"/><path class="cls-2" d="M129.104,154.349h9.341"/><path class="cls-2" d="M129.104,158.769h9.341"/><path class="cls-2" d="M129.104,163.185h9.341"/><path class="cls-2" d="M129.104,167.605h9.341"/><path class="cls-2" d="M129.104,172.022h9.341"/><path class="cls-2" d="M129.104,176.44h9.341"/><path class="cls-2" d="M129.104,180.858h9.341"/><path class="cls-2" d="M129.104,185.274h9.341"/><path class="cls-2" d="M129.104,189.692h9.341"/><path class="cls-2" d="M129.104,194.112h9.341"/><path class="cls-2" d="M129.104,198.528h9.341"/><path class="cls-2" d="M129.104,202.947h9.341"/><path class="cls-2" d="M129.104,207.365h9.341"/><path class="cls-2" d="M129.104,211.783h9.341"/><path class="cls-2" d="M129.104,216.201h9.341"/><path class="cls-2" d="M129.104,220.619h9.341"/><path class="cls-2" d="M129.104,225.037h9.341"/><path class="cls-2" d="M129.104,229.455h9.341"/><path class="cls-2" d="M129.104,233.873h9.341"/><path class="cls-2" d="M129.104,238.29h9.341"/><path class="cls-2" d="M141.736,123.625h-15.931v119.005h15.931v-119.005Z"/><path class="cls-2" d="M125.804,209.404h-26.593v33.225h26.593v-33.225Z"/><path class="cls-2" d="M125.804,180.858h-26.593v22.089h26.593v-22.089Z"/><path class="cls-2" d="M125.804,154.236h-26.593v26.623h26.593v-26.623Z"/><path class="cls-2" d="M125.804,123.625h-26.593v30.61h26.593v-30.61Z"/><path class="cls-2" d="M107.773,123.625v9.84"/><path class="cls-2" d="M110.93,123.625v9.84"/><path class="cls-2" d="M114.09,123.625v9.84"/><path class="cls-2" d="M117.25,123.625v9.84"/><path class="cls-2" d="M110.93,105.602v18.023"/><path class="cls-2" d="M114.088,105.602v18.023"/><path class="cls-2" d="M117.246,105.602h-9.476v18.023h9.476v-18.023Z"/><path class="cls-2" d="M125.803,109.517h-8.557v14.108h8.557v-14.108Z"/><path class="cls-2" d="M107.77,109.517h-8.557v14.108h8.557v-14.108Z"/><path class="cls-5" d="M48.84,253.73h166.332"/><path class="cls-5" d="M355.41,253.73h98.97"/><path class="cls-5" d="M241.783,268.821h153.286"/><path class="cls-5" d="M111.801,281.399h80.454"/><path class="cls-5" d="M437.419,281.399h155.957"/><path class="cls-2" d="M16.527,40.594c0-.449-.134-.888-.383-1.261-.249-.373-.604-.664-1.018-.836-.414-.172-.87-.216-1.31-.129-.44.088-.844.304-1.161.622-.317.318-.533.722-.621,1.162-.088.44-.043.897.129,1.312.172.415.462.77.835,1.019.373.25.811.383,1.26.383h6.573"/><path class="cls-2" d="M78.728,5.357c0-.449-.133-.888-.382-1.262-.249-.373-.604-.665-1.018-.836-.414-.172-.871-.217-1.311-.129-.44.088-.844.304-1.161.622-.317.318-.533.722-.621,1.163-.088.441-.043.897.129,1.312.172.415.462.77.835,1.019.373.25.812.383,1.26.383h6.573"/><path class="cls-2" d="M192.655,54.994c0-.449-.133-.888-.382-1.262-.25-.374-.604-.665-1.018-.836-.415-.172-.871-.217-1.311-.129-.44.088-.844.304-1.161.621-.318.318-.534.722-.621,1.163-.088.441-.043.897.129,1.312.172.415.462.77.835,1.019.373.25.812.383,1.261.383h6.573"/><path class="cls-2" d="M263.658,21.379c0-.449-.133-.888-.382-1.262-.25-.373-.604-.665-1.018-.837-.415-.172-.871-.217-1.311-.129-.44.088-.844.304-1.162.622-.317.318-.533.722-.62,1.163-.088.441-.043.897.129,1.312.171.415.462.77.835,1.019.373.25.812.383,1.26.383h6.574"/><path class="cls-2" d="M361.645,90.83c0-.449-.133-.888-.382-1.262-.249-.373-.603-.664-1.018-.836-.414-.172-.87-.217-1.31-.13s-.844.304-1.162.621c-.317.317-.533.722-.621,1.162-.088.44-.043.897.129,1.312.171.415.462.77.834,1.02.373.25.812.383,1.26.384h6.579"/><path class="cls-2" d="M418.548,22.421c0-.449-.133-.888-.382-1.262-.249-.373-.603-.665-1.018-.837-.414-.172-.87-.217-1.31-.129-.44.088-.845.304-1.162.622-.317.318-.533.722-.621,1.163-.087.441-.042.897.129,1.312.172.415.463.77.836,1.019.373.25.811.383,1.26.383h6.574"/><path class="cls-2" d="M549.364,117.619c0-.449-.133-.888-.382-1.261-.249-.374-.604-.665-1.018-.837-.414-.172-.87-.217-1.31-.129-.44.087-.845.303-1.162.621-.317.317-.533.722-.621,1.162-.088.441-.043.897.128,1.312.172.415.462.77.835,1.02s.811.383,1.26.383h6.573"/><path class="cls-2" d="M565.333,8.724c0-.449-.133-.888-.383-1.262-.249-.373-.603-.665-1.018-.836-.414-.172-.87-.217-1.31-.129-.44.088-.844.304-1.162.622-.317.318-.533.722-.621,1.163-.087.441-.042.897.13,1.312.171.415.462.77.835,1.019.373.25.812.383,1.26.383h6.574"/><path class="cls-4" d="M13.275,111.054c0,.255-.075.505-.216.717-.141.212-.342.377-.577.475-.235.098-.494.124-.744.074-.25-.05-.479-.172-.659-.352-.18-.18-.303-.41-.353-.66s-.024-.509.073-.745c.097-.235.262-.436.474-.578.212-.142.461-.217.715-.217.341,0,.668.135.909.376.241.242.377.569.378.91Z"/><path class="cls-4" d="M13.275,111.054c0,.255-.075.505-.216.717-.141.212-.342.377-.577.475-.235.098-.494.124-.744.074-.25-.05-.479-.172-.659-.352-.18-.18-.303-.41-.353-.66s-.024-.509.073-.745c.097-.235.262-.436.474-.578.212-.142.461-.217.715-.217.341,0,.668.135.909.376.241.242.377.569.378.91Z"/><path class="cls-4" d="M10.658,1.794c0,.254-.075.503-.217.715-.141.212-.342.377-.577.474-.235.097-.493.123-.743.073s-.478-.172-.658-.352c-.18-.18-.302-.409-.352-.659-.05-.25-.024-.508.073-.743.097-.235.262-.436.473-.577.211-.141.46-.217.714-.217.341,0,.667.136.908.377.241.241.376.568.377.909Z"/><path class="cls-4" d="M10.658,1.794c0,.254-.075.503-.217.715-.141.212-.342.377-.577.474-.235.097-.493.123-.743.073s-.478-.172-.658-.352c-.18-.18-.302-.409-.352-.659-.05-.25-.024-.508.073-.743.097-.235.262-.436.473-.577.211-.141.46-.217.714-.217.341,0,.667.136.908.377.241.241.376.568.377.909Z"/><path class="cls-4" d="M122.43,17.818c0,.254-.076.503-.217.715-.141.212-.342.377-.577.474-.234.097-.493.123-.742.073-.249-.05-.478-.172-.658-.352-.18-.18-.302-.409-.352-.659-.05-.25-.024-.508.073-.743s.262-.436.474-.577c.211-.141.459-.217.714-.217.34,0,.667.136.908.377.241.241.376.568.377.909Z"/><path class="cls-4" d="M122.43,17.818c0,.254-.076.503-.217.715-.141.212-.342.377-.577.474-.234.097-.493.123-.742.073-.249-.05-.478-.172-.658-.352-.18-.18-.302-.409-.352-.659-.05-.25-.024-.508.073-.743s.262-.436.474-.577c.211-.141.459-.217.714-.217.34,0,.667.136.908.377.241.241.376.568.377.909Z"/><path class="cls-4" d="M158.295,91.004c0,.254-.076.503-.217.714-.142.211-.343.376-.578.473-.234.097-.493.122-.742.073-.249-.05-.478-.173-.658-.353-.179-.18-.301-.409-.351-.659-.049-.25-.024-.508.074-.743.097-.235.262-.436.473-.577.211-.141.46-.217.714-.217.341,0,.668.136.909.378.241.242.376.569.376.91Z"/><path class="cls-4" d="M158.295,91.004c0,.254-.076.503-.217.714-.142.211-.343.376-.578.473-.234.097-.493.122-.742.073-.249-.05-.478-.173-.658-.353-.179-.18-.301-.409-.351-.659-.049-.25-.024-.508.074-.743.097-.235.262-.436.473-.577.211-.141.46-.217.714-.217.341,0,.668.136.909.378.241.242.376.569.376.91Z"/><path class="cls-4" d="M319.711,51.557c0,.255-.075.504-.216.716-.142.212-.343.377-.578.475-.235.097-.494.123-.744.073-.249-.05-.478-.172-.658-.353-.18-.18-.303-.41-.353-.66-.049-.25-.024-.509.074-.744.097-.235.262-.437.474-.578.211-.142.46-.217.715-.217.341,0,.668.136.909.377.242.242.377.569.377.911Z"/><path class="cls-4" d="M319.711,51.557c0,.255-.075.504-.216.716-.142.212-.343.377-.578.475-.235.097-.494.123-.744.073-.249-.05-.478-.172-.658-.353-.18-.18-.303-.41-.353-.66-.049-.25-.024-.509.074-.744.097-.235.262-.437.474-.578.211-.142.46-.217.715-.217.341,0,.668.136.909.377.242.242.377.569.377.911Z"/><path class="cls-4" d="M432.987,54.299c0,.255-.075.503-.216.715-.141.212-.342.376-.577.474-.234.097-.493.123-.742.074-.249-.05-.478-.172-.658-.352-.18-.18-.302-.409-.352-.658-.05-.25-.025-.508.072-.743.097-.235.262-.436.473-.578.211-.142.459-.217.713-.218.341,0,.669.135.91.377.241.241.377.568.377.91Z"/><path class="cls-4" d="M432.987,54.299c0,.255-.075.503-.216.715-.141.212-.342.376-.577.474-.234.097-.493.123-.742.074-.249-.05-.478-.172-.658-.352-.18-.18-.302-.409-.352-.658-.05-.25-.025-.508.072-.743.097-.235.262-.436.473-.578.211-.142.459-.217.713-.218.341,0,.669.135.91.377.241.241.377.568.377.91Z"/><path class="cls-4" d="M294.05,126.445c0,.255-.076.503-.217.715-.141.212-.342.376-.577.474-.234.097-.493.123-.742.073-.249-.05-.478-.172-.658-.352-.18-.18-.302-.409-.352-.659-.049-.25-.024-.508.073-.743.098-.235.262-.436.474-.578.211-.141.46-.217.714-.217.341,0,.667.136.908.377.241.241.377.569.377.91Z"/><path class="cls-4" d="M294.05,126.445c0,.255-.076.503-.217.715-.141.212-.342.376-.577.474-.234.097-.493.123-.742.073-.249-.05-.478-.172-.658-.352-.18-.18-.302-.409-.352-.659-.049-.25-.024-.508.073-.743.098-.235.262-.436.474-.578.211-.141.46-.217.714-.217.341,0,.667.136.908.377.241.241.377.569.377.91Z"/><path class="cls-4" d="M406.703,211.946c0,.254-.076.503-.217.714-.142.212-.342.376-.577.473-.235.097-.494.123-.743.073-.249-.05-.478-.173-.657-.353-.18-.18-.302-.409-.352-.659-.049-.249-.024-.508.074-.743.097-.235.262-.436.473-.577s.46-.217.714-.217c.169,0,.336.034.492.098.156.065.298.16.417.28.12.119.214.262.279.418.064.156.097.324.097.493Z"/><path class="cls-4" d="M406.703,211.946c0,.254-.076.503-.217.714-.142.212-.342.376-.577.473-.235.097-.494.123-.743.073-.249-.05-.478-.173-.657-.353-.18-.18-.302-.409-.352-.659-.049-.249-.024-.508.074-.743.097-.235.262-.436.473-.577s.46-.217.714-.217c.169,0,.336.034.492.098.156.065.298.16.417.28.12.119.214.262.279.418.064.156.097.324.097.493Z"/><path class="cls-4" d="M488.085,127.964c0,.255-.076.504-.217.716-.142.212-.343.377-.578.475-.235.097-.494.123-.743.073-.25-.05-.479-.172-.659-.353-.18-.18-.303-.409-.353-.659-.049-.25-.024-.509.074-.745.097-.235.262-.436.474-.578.211-.142.46-.217.715-.217.169,0,.336.033.492.097.157.065.299.16.418.28.12.119.214.262.279.418.065.156.098.324.098.493Z"/><path class="cls-4" d="M488.085,127.964c0,.255-.076.504-.217.716-.142.212-.343.377-.578.475-.235.097-.494.123-.743.073-.25-.05-.479-.172-.659-.353-.18-.18-.303-.409-.353-.659-.049-.25-.024-.509.074-.745.097-.235.262-.436.474-.578.211-.142.46-.217.715-.217.169,0,.336.033.492.097.157.065.299.16.418.28.12.119.214.262.279.418.065.156.098.324.098.493Z"/><path class="cls-4" d="M524.392,13.574c.711,0,1.287-.577,1.287-1.288s-.576-1.288-1.287-1.288-1.287.577-1.287,1.288.577,1.288,1.287,1.288Z"/><path class="cls-4" d="M524.392,13.574c.711,0,1.287-.577,1.287-1.288s-.576-1.288-1.287-1.288-1.287.577-1.287,1.288.577,1.288,1.287,1.288Z"/><path class="cls-4" d="M609.646,5.669c.711,0,1.287-.577,1.287-1.288s-.576-1.288-1.287-1.288-1.287.577-1.287,1.288.577,1.288,1.287,1.288Z"/><path class="cls-4" d="M609.646,5.669c.711,0,1.287-.577,1.287-1.288s-.576-1.288-1.287-1.288-1.287.577-1.287,1.288.577,1.288,1.287,1.288Z"/><path class="cls-4" d="M643.947,163.591c0,.255-.075.504-.216.716-.141.212-.342.378-.577.476-.236.097-.494.123-.744.074-.25-.05-.479-.172-.66-.353-.18-.18-.302-.409-.352-.659s-.025-.509.073-.745c.097-.235.262-.437.474-.578.211-.142.46-.218.715-.218.341,0,.668.136.909.377.242.241.377.569.378.91Z"/><path class="cls-4" d="M643.947,163.591c0,.255-.075.504-.216.716-.141.212-.342.378-.577.476-.236.097-.494.123-.744.074-.25-.05-.479-.172-.66-.353-.18-.18-.302-.409-.352-.659s-.025-.509.073-.745c.097-.235.262-.437.474-.578.211-.142.46-.218.715-.218.341,0,.668.136.909.377.242.241.377.569.378.91Z"/><path class="cls-3" d="M99.798,59.949c-.236.02-.457.128-.617.303-.16.175-.25.404-.25.641s.089.466.25.641c.16.175.381.283.617.303.236-.02.457-.128.617-.303.161-.175.25-.404.25-.641s-.089-.466-.25-.641c-.16-.175-.381-.283-.617-.303Z"/><path class="cls-3" d="M1.367,182.742c-.236.02-.457.128-.617.303-.16.175-.25.404-.25.642s.089.466.25.641c.16.175.381.283.617.304.236-.021.457-.129.617-.304.16-.175.25-.404.25-.641s-.089-.467-.25-.642c-.16-.175-.381-.283-.617-.303Z"/><path class="cls-3" d="M178.402,7.775c-.237.02-.457.128-.617.303-.161.175-.25.404-.25.641s.089.466.25.641c.16.175.38.283.617.303.236-.02.456-.128.617-.303.16-.175.249-.404.249-.641s-.089-.466-.249-.641c-.161-.175-.381-.283-.617-.303Z"/><path class="cls-3" d="M320.924,4.379c-.236.02-.456.128-.617.303-.16.175-.249.404-.249.641s.089.466.249.641c.161.175.381.283.617.303.237-.02.457-.128.617-.303.161-.175.25-.404.25-.641s-.089-.466-.25-.641c-.16-.175-.38-.283-.617-.303Z"/><path class="cls-3" d="M380.672,47.978c-.236.02-.456.129-.617.304-.16.175-.249.404-.249.641s.089.466.249.641c.161.175.381.283.617.304.237-.02.457-.128.617-.304.161-.175.25-.404.25-.641s-.089-.466-.25-.641c-.16-.175-.38-.283-.617-.304Z"/><path class="cls-3" d="M474.356,211.673c-.237.021-.457.129-.617.304-.161.175-.25.404-.25.641s.089.467.25.642c.16.175.38.283.617.303.236-.02.456-.128.617-.303.16-.175.25-.404.25-.642s-.09-.466-.25-.641c-.161-.175-.381-.283-.617-.304Z"/><path class="cls-3" d="M639.494,100.402c-.236.02-.456.128-.617.303-.16.175-.249.404-.249.642s.089.466.249.641c.161.175.381.283.617.304.237-.021.457-.129.618-.304.16-.175.249-.404.249-.641s-.089-.467-.249-.642c-.161-.175-.381-.283-.618-.303Z"/><path class="cls-3" d="M630.776,208.458c-.237.02-.457.128-.617.303-.161.175-.25.404-.25.641s.089.467.25.642c.16.175.38.283.617.303.236-.02.456-.128.617-.303.16-.175.249-.404.249-.642s-.089-.466-.249-.641c-.161-.175-.381-.283-.617-.303Z"/><path class="cls-3" d="M329.974,213.884c-.236.02-.457.128-.617.303-.161.175-.25.404-.25.642s.089.466.25.641c.16.175.381.283.617.304.236-.021.457-.129.617-.304.161-.175.25-.404.25-.641s-.089-.467-.25-.642c-.16-.175-.381-.283-.617-.303Z"/><path class="cls-3" d="M154.786,147.933c-.236.02-.456.129-.617.304-.16.175-.249.404-.249.641s.089.467.249.641c.161.175.381.284.617.304.237-.02.457-.129.618-.304.16-.174.249-.403.249-.641s-.089-.466-.249-.641c-.161-.175-.381-.284-.618-.304Z"/><path class="cls-3" d="M70.197,216.694c-.236.02-.457.128-.617.303s-.249.404-.249.642.089.466.249.641c.16.175.381.283.617.304.236-.021.457-.129.617-.304.16-.175.25-.404.25-.641s-.089-.467-.25-.642c-.16-.175-.381-.283-.617-.303Z"/><path class="cls-3" d="M232.682,113.666c-.236.02-.457.129-.617.304-.161.175-.25.403-.25.641s.089.466.25.641c.16.175.381.284.617.304.236-.02.457-.129.617-.304.161-.175.25-.403.25-.641s-.089-.466-.25-.641c-.16-.175-.381-.284-.617-.304Z"/><path class="cls-3" d="M365.948,133.465c-.237.02-.457.128-.617.303-.161.175-.25.404-.25.642s.089.466.25.641c.16.175.38.283.617.304.236-.021.456-.129.617-.304.16-.175.249-.404.249-.641s-.089-.467-.249-.642c-.161-.175-.381-.283-.617-.303Z"/></g><g class="cls-6"><path class="cls-5" d="M639.272,242.608h636.768"/><path class="cls-2" d="M1216.56,182.133c-2.85-.443-9.86-1.161-25.29-1.161s-22.44.718-25.29,1.161c-.14.025-.26.089-.36.184-.09.095-.16.217-.19.35-.02.133-.01.271.04.397.05.126.14.234.25.311,4.79,3.049,19.75,13.266,19.75,21.93v37.303h11.6v-37.302c0-8.663,14.96-18.88,19.75-21.929.11-.077.2-.185.25-.311.05-.127.06-.265.04-.398-.03-.134-.1-.256-.2-.351-.09-.095-.22-.159-.35-.184Z"/><path class="cls-2" d="M1216.56,182.134c-.86-.132-2.09-.289-3.79-.445-6.21,4.668-16.84,13.817-16.84,21.765v39.155h1.14v-37.295c0-8.663,14.96-18.88,19.75-21.929.11-.076.2-.185.26-.312.05-.128.06-.268.03-.403-.03-.135-.09-.258-.19-.354-.1-.095-.23-.159-.36-.182Z"/><path class="cls-2" d="M1165.98,182.134c.85-.133,2.08-.289,3.79-.445,6.21,4.667,16.83,13.817,16.83,21.764v39.155h-1.13v-37.294c0-8.664-14.96-18.88-19.75-21.93-.12-.076-.21-.184-.26-.311-.05-.127-.06-.267-.04-.402.03-.135.1-.258.2-.354.1-.096.22-.16.36-.183Z"/><path class="cls-2" d="M1179.96,181.119c2.91,5.364,8.55,16.47,8.55,22.478v38.997h1.7v-61.621c-3.97.009-7.36.066-10.25.146Z"/><path class="cls-2" d="M1202.58,181.12c-2.89-.088-6.29-.145-10.26-.153v61.636h1.7v-38.997c0-6.008,5.63-17.116,8.56-22.486Z"/><path class="cls-1" d="M1160.54,176.157c-3.14-.487-10.84-1.276-27.8-1.276s-24.66.79-27.8,1.276c-.15.023-.29.091-.4.195-.11.104-.19.239-.22.388-.03.148-.01.303.04.442.06.14.16.258.29.339,5.26,3.352,21.7,14.579,21.7,24.098v40.99h12.75v-40.99c0-9.519,16.44-20.746,21.7-24.098.13-.079.23-.196.29-.334.06-.138.08-.291.05-.439-.03-.148-.1-.284-.21-.389-.11-.106-.25-.176-.39-.202Z"/><path class="cls-2" d="M1160.54,176.157c-3.14-.487-10.84-1.276-27.8-1.276s-24.66.79-27.8,1.276c-.15.023-.29.091-.4.195-.11.104-.19.239-.22.388-.03.148-.01.303.04.442.06.14.16.258.29.339,5.26,3.352,21.7,14.579,21.7,24.098v40.99h12.75v-40.99c0-9.519,16.44-20.746,21.7-24.098.13-.079.23-.196.29-.334.06-.138.08-.291.05-.439-.03-.148-.1-.284-.21-.389-.11-.106-.25-.176-.39-.202Z"/><path class="cls-2" d="M1160.53,176.158c-.93-.146-2.28-.318-4.16-.49-6.82,5.128-18.5,15.183-18.5,23.917v43.026h1.25v-40.99c0-9.519,16.44-20.746,21.7-24.098.13-.08.23-.199.29-.338.06-.14.07-.295.04-.444-.03-.148-.11-.284-.22-.388-.11-.105-.25-.173-.4-.195Z"/><path class="cls-2" d="M1104.95,176.158c.94-.146,2.29-.318,4.17-.49,6.82,5.128,18.5,15.183,18.5,23.917v43.026h-1.25v-40.99c0-9.519-16.44-20.746-21.7-24.098-.13-.08-.23-.199-.29-.338-.06-.14-.08-.295-.04-.444.03-.148.1-.284.21-.388.11-.105.25-.173.4-.195Z"/><path class="cls-2" d="M1120.32,175.05c3.21,5.893,9.4,18.099,9.4,24.699v42.869h1.87v-67.736c-4.37.01-8.1.072-11.27.168Z"/><path class="cls-2" d="M1145.18,175.051c-3.18-.096-6.91-.159-11.28-.172v67.74h1.87v-42.869c0-6.607,6.19-18.804,9.41-24.699Z"/><path class="cls-1" d="M1200.31,161.131c-3.84-.598-13.28-1.565-34.07-1.565s-30.23.969-34.07,1.565c-.19.029-.36.113-.49.241-.13.129-.23.295-.26.477-.04.182-.02.371.05.541.07.171.2.315.35.414,6.46,4.11,26.61,17.867,26.61,29.549v50.256h15.64v-50.258c0-11.672,20.15-25.437,26.6-29.548.16-.1.28-.246.35-.417.07-.172.09-.361.05-.543-.04-.182-.13-.348-.26-.475-.14-.127-.31-.21-.5-.237Z"/><path class="cls-2" d="M1200.31,161.131c-3.84-.598-13.28-1.565-34.07-1.565s-30.23.969-34.07,1.565c-.19.029-.36.113-.49.241-.13.129-.23.295-.26.477-.04.182-.02.371.05.541.07.171.2.315.35.414,6.46,4.11,26.61,17.867,26.61,29.549v50.256h15.64v-50.258c0-11.672,20.15-25.437,26.6-29.548.16-.1.28-.246.35-.417.07-.172.09-.361.05-.543-.04-.182-.13-.348-.26-.475-.14-.127-.31-.21-.5-.237Z"/><path class="cls-2" d="M1200.31,161.132c-1.14-.171-2.8-.39-5.1-.599-8.37,6.287-22.69,18.615-22.69,29.323v52.753h1.54v-50.257c0-11.671,20.15-25.437,26.6-29.548.16-.1.28-.245.36-.416.07-.171.09-.36.05-.541-.04-.182-.13-.348-.27-.475-.13-.128-.3-.211-.49-.24Z"/><path class="cls-2" d="M1132.17,161.132c1.15-.171,2.8-.39,5.11-.599,8.36,6.287,22.68,18.615,22.68,29.323v52.753h-1.53v-50.257c0-11.671-20.16-25.437-26.61-29.548-.16-.1-.28-.245-.35-.416-.07-.171-.09-.36-.06-.541.04-.182.14-.348.27-.475.13-.128.3-.211.49-.24Z"/><path class="cls-2" d="M1151,159.774c3.94,7.225,11.53,22.19,11.53,30.283v52.552h2.29v-83.042c-5.36.013-9.93.088-13.82.207Z"/><path class="cls-2" d="M1181.48,159.774c-3.89-.117-8.47-.194-13.82-.207v83.042h2.28v-52.552c0-8.093,7.6-23.058,11.54-30.283Z"/><path class="cls-2" d="M1092.25,242.608c0-78.224-25.52-162.836-25.52-162.836h-6.38s11.46,30.682-11.15,43.103c0,0,11.84,102.31,19.49,119.74l23.56-.007Z"/><path class="cls-2" d="M1066.73,79.772s25.17,36.369,24.42,46.546-4.77,44.192-4.51,45.972"/><path class="cls-2" d="M1068.69,242.609h-12.91v-68.545"/><path class="cls-2" d="M1061.55,83.761h6.34"/><path class="cls-2" d="M1062.53,88.451h6.69"/><path class="cls-2" d="M1063.11,93.139h7.33"/><path class="cls-2" d="M1063.25,97.83h8.4"/><path class="cls-2" d="M1062.87,102.518h9.96"/><path class="cls-2" d="M1062.55,107.21h11.43"/><path class="cls-2" d="M1063.66,111.898h11.53"/><path class="cls-2" d="M1064.74,116.587h11.44"/><path class="cls-2" d="M1065.79,121.278h11.44"/><path class="cls-2" d="M1066.82,125.967h11.43"/><path class="cls-2" d="M1067.81,130.656h11.43"/><path class="cls-2" d="M1068.77,135.345h11.43"/><path class="cls-2" d="M1069.69,140.036h11.44"/><path class="cls-2" d="M1070.59,144.726h11.43"/><path class="cls-2" d="M1071.46,149.415h11.43"/><path class="cls-2" d="M1072.29,154.104h11.37"/><path class="cls-2" d="M1073.09,158.794h11.43"/><path class="cls-2" d="M1073.86,163.482h11.43"/><path class="cls-2" d="M1074.67,168.171h11.36"/><path class="cls-2" d="M1075.41,172.862h11.23"/><path class="cls-2" d="M1075.95,177.552h11.44"/><path class="cls-2" d="M1076.58,182.24h11.43"/><path class="cls-2" d="M1077.17,186.93h11.43"/><path class="cls-2" d="M1077.72,191.621h11.43"/><path class="cls-2" d="M1078.23,196.31h11.43"/><path class="cls-2" d="M1078.74,200.997h11.39"/><path class="cls-2" d="M1079.13,205.69h11.43"/><path class="cls-2" d="M1079.51,210.378h11.43"/><path class="cls-2" d="M1079.85,215.067h11.32"/><path class="cls-2" d="M1080.14,219.756h11.43"/><path class="cls-2" d="M1080.38,224.447h11.44"/><path class="cls-2" d="M1080.57,229.136h11.43"/><path class="cls-2" d="M1080.81,233.825h11.32"/><path class="cls-2" d="M1080.81,238.514h11.43"/><path class="cls-5" d="M994.196,242.607h-64.494l14.838-113.62h34.821l14.835,113.62Z"/><path class="cls-5" d="M975.567,231.998l-9.242-70.779h-8.752l-10.629,81.382"/><path class="cls-5" d="M971.205,224.279h-21.872l.74-5.669h21.132v5.669Z"/><path class="cls-5" d="M971.206,218.623h-10.936v5.662h10.936v-5.662Z"/><path class="cls-5" d="M977.155,242.609h-30.217l1.387-10.61h31.487l-2.657,10.61Z"/><path class="cls-5" d="M953.205,194.633l3.722,23.99"/><path class="cls-5" d="M956.909,175.195l6.738,43.426"/><path class="cls-5" d="M965.799,161.226l-8.905,57.396"/><path class="cls-5" d="M962.495,224.285l-1.197,7.72"/><path class="cls-5" d="M959.002,231.998l-1.196-7.713"/><path class="cls-5" d="M955.569,224.285l-1.197,7.713"/><path class="cls-5" d="M952.071,231.998l-1.197-7.713"/><path class="cls-5" d="M969.425,224.285l-1.196,7.713"/><path class="cls-5" d="M965.934,231.998l-1.197-7.713"/><path class="cls-5" d="M972.405,231.998l-1.199-7.713"/><path class="cls-5" d="M961.461,161.226l8.905,57.396"/><path class="cls-5" d="M969.154,182.887l-5.544,35.735"/><path class="cls-5" d="M972.229,206.405l-1.896,12.218"/><path class="cls-5" d="M959.076,161.226l-2.182,14.065"/><path class="cls-5" d="M944.111,132.243h4.872"/><path class="cls-5" d="M943.687,135.495h4.871"/><path class="cls-5" d="M943.265,138.75h4.871"/><path class="cls-5" d="M942.837,142.004h4.871"/><path class="cls-5" d="M942.416,145.255h4.871"/><path class="cls-5" d="M941.99,148.509h4.872"/><path class="cls-5" d="M941.564,151.76h4.872"/><path class="cls-5" d="M941.141,155.014h4.871"/><path class="cls-5" d="M940.715,158.268h4.871"/><path class="cls-5" d="M940.289,161.521h4.871"/><path class="cls-5" d="M939.865,164.773h4.872"/><path class="cls-5" d="M939.439,168.026h4.872"/><path class="cls-5" d="M939.015,171.278h4.871"/><path class="cls-5" d="M938.591,174.532h4.871"/><path class="cls-5" d="M938.164,177.784h4.871"/><path class="cls-5" d="M937.741,181.038h4.872"/><path class="cls-5" d="M937.315,184.29h4.872"/><path class="cls-5" d="M936.89,187.544h4.871"/><path class="cls-5" d="M936.469,190.796h4.871"/><path class="cls-5" d="M936.041,194.05h4.871"/><path class="cls-5" d="M935.614,197.302h4.872"/><path class="cls-5" d="M935.189,200.556h4.872"/><path class="cls-5" d="M934.766,203.807h4.871"/><path class="cls-5" d="M934.342,207.062h4.871"/><path class="cls-5" d="M933.916,210.314h4.871"/><path class="cls-5" d="M933.494,213.566h4.871"/><path class="cls-5" d="M933.068,216.82h4.872"/><path class="cls-5" d="M932.641,220.072h4.871"/><path class="cls-5" d="M932.22,223.325h4.871"/><path class="cls-5" d="M931.792,226.579h4.871"/><path class="cls-5" d="M931.368,229.83h4.871"/><path class="cls-5" d="M930.943,233.084h4.872"/><path class="cls-5" d="M930.519,236.338h4.871"/><path class="cls-5" d="M930.094,239.59h4.871"/><path class="cls-5" d="M979.778,132.244h-4.872"/><path class="cls-5" d="M980.203,135.495h-4.871"/><path class="cls-5" d="M980.627,138.75h-4.871"/><path class="cls-5" d="M981.052,142.004h-4.871"/><path class="cls-5" d="M981.478,145.255h-4.872"/><path class="cls-5" d="M981.904,148.509h-4.872"/><path class="cls-5" d="M982.324,151.761h-4.871"/><path class="cls-5" d="M982.753,155.014h-4.871"/><path class="cls-5" d="M983.178,158.268h-4.871"/><path class="cls-5" d="M983.599,161.521h-4.871"/><path class="cls-5" d="M984.029,164.773h-4.872"/><path class="cls-5" d="M984.449,168.027h-4.871"/><path class="cls-5" d="M984.873,171.279h-4.871"/><path class="cls-5" d="M985.299,174.532h-4.871"/><path class="cls-5" d="M985.726,177.785h-4.872"/><path class="cls-5" d="M986.149,181.038h-4.872"/><path class="cls-5" d="M986.574,184.29h-4.871"/><path class="cls-5" d="M986.999,187.545h-4.871"/><path class="cls-5" d="M987.424,190.796h-4.871"/><path class="cls-5" d="M987.848,194.05h-4.871"/><path class="cls-5" d="M988.275,197.302h-4.872"/><path class="cls-5" d="M988.698,200.555h-4.871"/><path class="cls-5" d="M989.124,203.808h-4.871"/><path class="cls-5" d="M989.55,207.062h-4.871"/><path class="cls-5" d="M989.974,210.314h-4.871"/><path class="cls-5" d="M990.4,213.567h-4.872"/><path class="cls-5" d="M990.824,216.82h-4.871"/><path class="cls-5" d="M991.248,220.073h-4.871"/><path class="cls-5" d="M991.673,223.326h-4.871"/><path class="cls-5" d="M992.1,226.579h-4.871"/><path class="cls-5" d="M992.52,229.831h-4.872"/><path class="cls-5" d="M992.948,233.084h-4.871"/><path class="cls-5" d="M993.37,236.338h-4.871"/><path class="cls-5" d="M993.796,239.59h-4.871"/><path class="cls-2" d="M877.709,168.933c0-23.939,15.847-89.465,15.847-89.465,0,0-15.847-7.636-15.847-2.477v165.609h32.947V60.722l-7.207-8.323v10.663l-17.924,13.208"/><path class="cls-2" d="M883.932,123.735v118.873"/><path class="cls-2" d="M896.163,242.608s14.487-73.726,14.487-99.395"/><path class="cls-2" d="M903.442,63.061v139.25"/><path class="cls-2" d="M897.066,77.232v2.338"/><path class="cls-2" d="M899.92,81.13v2.338"/><path class="cls-2" d="M895.261,87.386v2.338"/><path class="cls-2" d="M897.789,89.727v2.338"/><path class="cls-2" d="M900.968,96.842v2.338"/><path class="cls-2" d="M893.318,99.183v2.338"/><path class="cls-2" d="M897.789,102.531v2.338"/><path class="cls-2" d="M891.585,109.777v2.338"/><path class="cls-2" d="M896.153,113.235v2.339"/><path class="cls-2" d="M899.92,120.364v2.338"/><path class="cls-2" d="M890.63,118.877v2.338"/><path class="cls-2" d="M894.181,123.999v2.338"/><path class="cls-2" d="M888.135,129.773v2.338"/><path class="cls-2" d="M892.245,135.25v2.338"/><path class="cls-2" d="M899.203,129.773v2.338"/><path class="cls-2" d="M896.877,139.72v2.338"/><path class="cls-2" d="M888.763,144.336v2.338"/><path class="cls-2" d="M892.245,150.75v2.338"/><path class="cls-2" d="M899.92,147.081v2.338"/><path class="cls-2" d="M897.29,156.545v2.338"/><path class="cls-2" d="M888.135,162.668v2.338"/><path class="cls-2" d="M893.689,169.595v2.338"/><path class="cls-2" d="M899.92,165.007v2.338"/><path class="cls-2" d="M897.77,172.626v2.338"/><path class="cls-2" d="M888.135,176.431v2.338"/><path class="cls-2" d="M891.585,182.333v2.338"/><path class="cls-2" d="M899.203,179.993v2.338"/><path class="cls-2" d="M895.836,187.797v2.339"/><path class="cls-2" d="M900.792,192.911v2.338"/><path class="cls-2" d="M886.703,189.503v2.338"/><path class="cls-2" d="M891.081,192.911v2.338"/><path class="cls-2" d="M888.718,199.974v2.338"/><path class="cls-2" d="M895.324,197.633v2.339"/><path class="cls-2" d="M898.405,203.134v2.338"/><path class="cls-2" d="M893.689,206.072v2.338"/><path class="cls-2" d="M886.703,209.112v2.338"/><path class="cls-2" d="M890.458,215.196v2.338"/><path class="cls-2" d="M896.832,210.671v2.338"/><path class="cls-2" d="M894.971,220.491v2.338"/><path class="cls-2" d="M886.703,222.447v2.338"/><path class="cls-2" d="M891.585,226.631v2.338"/><path class="cls-2" d="M888.135,231.356v2.338"/><path class="cls-2" d="M893.202,236.41v2.338"/><path class="cls-2" d="M887.205,237.993v2.338"/><path class="cls-2" d="M695.85,149.404c0,1.386-.411,2.741-1.181,3.893-.769,1.153-1.863,2.051-3.142,2.581-1.279.53-2.687.669-4.044.398-1.358-.27-2.606-.938-3.585-1.919-.978-.98-1.645-2.229-1.915-3.588-.27-1.36-.131-2.769.399-4.05.53-1.281,1.427-2.375,2.578-3.145,1.151-.77,2.505-1.181,3.889-1.181.92,0,1.83.181,2.68.533.85.352,1.622.869,2.272,1.52.65.651,1.165,1.424,1.517,2.274.352.851.533,1.763.532,2.684Z"/><path class="cls-2" d="M690.525,156.219c-1.519-.377-2.869-1.251-3.833-2.485-.965-1.234-1.489-2.756-1.489-4.323s.524-3.088,1.489-4.322c.964-1.234,2.314-2.109,3.833-2.485"/><path class="cls-2" d="M685.586,143.2h3.356"/><path class="cls-2" d="M683.755,144.594h3.444"/><path class="cls-2" d="M682.733,145.987h3.357"/><path class="cls-2" d="M682.141,147.382h3.356"/><path class="cls-2" d="M681.87,148.775h3.373"/><path class="cls-2" d="M681.889,150.169h3.356"/><path class="cls-2" d="M682.186,151.561h3.354"/><path class="cls-2" d="M682.81,152.954h3.354"/><path class="cls-2" d="M683.887,154.348h3.356"/><path class="cls-2" d="M685.637,155.741h3.576"/><path class="cls-2" d="M702.151,184.067c.306,1.905.194,3.853-.328,5.71-.523,1.858-1.443,3.579-2.696,5.044-1.254,1.465-2.811,2.639-4.564,3.441s-3.659,1.212-5.587,1.201c-1.927-.01-3.828-.44-5.573-1.261-1.744-.821-3.288-2.011-4.526-3.49-1.238-1.479-2.14-3.21-2.642-5.072-.502-1.863-.593-3.813-.267-5.714"/><path class="cls-2" d="M676.554,181.702c.928-2.587,2.634-4.822,4.883-6.397,2.249-1.576,4.931-2.415,7.676-2.401,2.745.013,5.419.878,7.653,2.475,2.233,1.598,3.918,3.849,4.821,6.445"/><path class="cls-2" d="M683.287,180.764c.861-1.923,2.165-3.614,3.806-4.933,1.64-1.32,3.571-2.23,5.631-2.657"/><path class="cls-2" d="M692.224,199.093c-1.701-.422-3.302-1.177-4.71-2.222-1.409-1.044-2.597-2.357-3.497-3.863-.899-1.506-1.492-3.175-1.745-4.911-.252-1.737-.159-3.506.275-5.206"/><path class="cls-2" d="M682.86,174.435h6.361"/><path class="cls-2" d="M679.396,177.075h6.528"/><path class="cls-2" d="M677.454,179.715h6.359"/><path class="cls-2" d="M675.819,184.999h6.395"/><path class="cls-2" d="M675.854,187.639h6.361"/><path class="cls-2" d="M676.417,190.28h6.359"/><path class="cls-2" d="M677.603,192.921h6.359"/><path class="cls-2" d="M679.642,195.562h6.36"/><path class="cls-2" d="M682.959,198.202h6.778"/><path class="cls-2" d="M665.482,242.609l2.679-83.542,2.678,83.542h-5.357Z"/><path class="cls-2" d="M695.429,197.842c-.828.489-1.508,1.193-1.97,2.037-.461.844-.687,1.797-.653,2.759l1.582,39.972h-11.076l1.589-40.147c.033-.969-.193-1.928-.655-2.78-.461-.852-1.142-1.565-1.971-2.066"/><path class="cls-2" d="M703.441,185.056v-2.062c0-1.326-6.534-2.405-14.586-2.405s-14.585,1.075-14.585,2.405v2.062"/><path class="cls-2" d="M702.28,185.996c.746-.288,1.161-.606,1.161-.939,0-1.327-6.534-2.406-14.586-2.406s-14.585,1.076-14.585,2.406c0,.388.557.754,1.544,1.078"/><path class="cls-2" d="M684.52,154.912c.633.496,1.149,1.126,1.511,1.843.362.718.562,1.507.586,2.311l-.444,11.22c.042.799-.172,1.591-.61,2.261-.438.669-1.078,1.181-1.827,1.462"/><path class="cls-2" d="M693.178,154.912c-.633.496-1.149,1.125-1.512,1.843-.363.718-.563,1.507-.587,2.311l.445,11.22c-.008.768.22,1.519.651,2.153.432.635,1.048,1.121,1.764,1.395"/><path class="cls-2" d="M685.562,143.208c1.154-.767,1.734-1.409,1.78-2.588l1.5-37.87,1.499,37.87c.047,1.179.625,1.82,1.78,2.588"/><path class="cls-2" d="M688.181,119.632h1.34"/><path class="cls-2" d="M667.296,186.134h1.736"/><path class="cls-2" d="M652.756,154.105h1.709"/><path class="cls-2" d="M658.836,199.379c-.721.517-1.298,1.21-1.676,2.013-.378.804-.544,1.691-.483,2.577l1.716,38.638h-9.568l1.716-38.638c.062-.886-.104-1.773-.482-2.577-.378-.803-.955-1.496-1.676-2.013"/><path class="cls-2" d="M650.123,181.208c.462-.214.853-.556,1.125-.987.273-.43.415-.931.411-1.44l1.951-43.931,1.945,43.936c-.004.51.139,1.01.411,1.44.272.431.663.774,1.125.987"/><path class="cls-2" d="M663.72,190.716c0,2.002-.593,3.959-1.704,5.623-1.111,1.665-2.69,2.962-4.537,3.728-1.848.767-3.88.967-5.842.577-1.961-.391-3.762-1.355-5.176-2.771-1.414-1.415-2.377-3.219-2.767-5.182-.39-1.964-.19-3.999.576-5.849.765-1.849,2.061-3.43,3.723-4.542,1.663-1.113,3.617-1.706,5.617-1.706,1.328-.001,2.643.261,3.87.769,1.226.508,2.341,1.254,3.28,2.194.939.94,1.684,2.056,2.191,3.285.508,1.228.769,2.544.769,3.874Z"/><path class="cls-2" d="M656.035,200.546c-2.228-.55-4.202-1.842-5.599-3.665-1.398-1.822-2.134-4.066-2.089-6.363.045-2.296.868-4.51,2.336-6.276,1.467-1.766,3.491-2.98,5.738-3.442"/><path class="cls-2" d="M648.898,181.761h4.846"/><path class="cls-2" d="M646.258,183.772h4.972"/><path class="cls-2" d="M644.781,185.784h4.846"/><path class="cls-2" d="M643.927,187.796h4.845"/><path class="cls-2" d="M643.535,189.809h4.871"/><path class="cls-2" d="M643.561,191.821h4.845"/><path class="cls-2" d="M643.988,193.832h4.844"/><path class="cls-2" d="M644.893,195.844h4.843"/><path class="cls-2" d="M646.445,197.855h4.846"/><path class="cls-2" d="M648.973,199.868h5.163"/><path class="cls-2" d="M1028.14,160.119c-8.26-2.447-17.37,0-17.71,0v-13.744s-.5-2.785,8.85-2.785,8.85,2.785,8.85,2.785l.01,13.744Z"/><path class="cls-2" d="M1010.43,160.12c0,4.134,4.89,3.797,4.89,7.846v5.315"/><path class="cls-2" d="M1028.14,160.12c0,4.134-4.89,3.797-4.89,7.846v5.315"/><path class="cls-2" d="M1014.85,166.044c2.85-1.134,6.02-1.134,8.88,0"/><path class="cls-2" d="M1028.13,153.178c1.38-.244,2.19-.547,2.19-.873,0-.807-4.94-1.46-11.03-1.46s-11.04.654-11.04,1.46c0,.326.81.629,2.18.873"/><path class="cls-2" d="M1023.89,139.706c.71-.213,1.13-.478,1.13-.765,0-.708-2.56-1.28-5.73-1.28s-5.73.574-5.73,1.28c0,.287.43.552,1.14.765"/><path class="cls-2" d="M1028.13,156.036c1.38-.244,2.19-.546,2.19-.873,0-.807-4.94-1.46-11.03-1.46s-11.04.655-11.04,1.46c0,.329.81.631,2.18.873"/><path class="cls-2" d="M1028.13,158.877c1.38-.244,2.19-.545,2.19-.873,0-.806-4.94-1.46-11.03-1.46s-11.04.654-11.04,1.46c0,.328.81.63,2.18.873"/><path class="cls-2" d="M1024.01,242.609h-9.44l.76-56.916h7.92l.76,56.916Z"/><path class="cls-2" d="M1023.24,185.693c0-1.632,3.98-3.362,6.37-4.569,2.08-1.055,1.7-2.383,1.7-2.383,0-.873-5.39-1.582-12.03-1.582s-12.02.708-12.02,1.582c0,0-.38,1.328,1.7,2.383,2.39,1.202,6.36,2.936,6.36,4.569"/><path class="cls-2" d="M1031.31,178.742c0-3.015-8.07-3.058-8.07-5.462"/><path class="cls-2" d="M1007.26,178.742c0-3.015,8.07-3.058,8.07-5.462"/><path class="cls-2" d="M1023.88,138.177v5.764"/><path class="cls-2" d="M1014.69,138.177v5.712"/><path class="cls-2" d="M1016.58,137.811l2.7-84.909,2.7,84.909"/><path class="cls-2" d="M1016.7,134.075c-1.57-.172-2.64-.515-2.64-.897,0-.57,2.34-1.03,5.22-1.03s5.23.462,5.23,1.03c0,.385-1.07.72-2.64.897"/><path class="cls-2" d="M1016.87,128.749c-1.45-.171-2.43-.474-2.43-.828,0-.527,2.17-.957,4.84-.957s4.84.428,4.84.957c0,.354-.98.665-2.43.828"/><path class="cls-2" d="M1254.99,242.607h-13.11V86.933l13.11,13.125v142.549Z"/><path class="cls-2" d="M1254.99,100.06l-13.11-13.125v-12.287l13.11,13.125v12.287Z"/><path class="cls-2" d="M1254.98,237.417l-13.1-13.743,13.1-13.744-13.1-13.743,13.1-13.744-13.1-13.743,13.1-13.744-13.1-13.743,13.1-13.744-13.1-13.743,13.1-13.744"/><path class="cls-2" d="M1241.87,103.823h-14.83v138.783h14.83V103.823Z"/><path class="cls-2" d="M1229.17,115.015v-14.55"/><path class="cls-2" d="M1231.81,115.015v-14.55"/><path class="cls-2" d="M1234.46,115.015v-14.55"/><path class="cls-2" d="M1237.1,115.015v-14.55"/><path class="cls-2" d="M1239.74,115.015v-14.55"/><path class="cls-2" d="M1241.87,128.732h-11.07v113.875h11.07v-113.875Z"/><path class="cls-2" d="M1235.26,132.128h-2.18v2.175h2.18v-2.175Z"/><path class="cls-2" d="M1239.59,132.128h-2.17v2.175h2.17v-2.175Z"/><path class="cls-2" d="M1235.26,136.21h-2.18v2.175h2.18v-2.175Z"/><path class="cls-2" d="M1239.59,136.21h-2.17v2.175h2.17v-2.175Z"/><path class="cls-2" d="M1235.26,140.293h-2.18v2.175h2.18v-2.175Z"/><path class="cls-2" d="M1239.59,140.293h-2.17v2.175h2.17v-2.175Z"/><path class="cls-2" d="M1235.26,144.375h-2.18v2.175h2.18v-2.175Z"/><path class="cls-2" d="M1239.59,144.375h-2.17v2.175h2.17v-2.175Z"/><path class="cls-2" d="M1235.26,148.459h-2.18v2.175h2.18v-2.175Z"/><path class="cls-2" d="M1239.59,148.459h-2.17v2.175h2.17v-2.175Z"/><path class="cls-2" d="M1235.26,152.541h-2.18v2.175h2.18v-2.175Z"/><path class="cls-2" d="M1239.59,152.541h-2.17v2.175h2.17v-2.175Z"/><path class="cls-2" d="M1235.26,156.623h-2.18v2.175h2.18v-2.175Z"/><path class="cls-2" d="M1239.59,156.623h-2.17v2.175h2.17v-2.175Z"/><path class="cls-2" d="M1235.26,160.705h-2.18v2.175h2.18v-2.175Z"/><path class="cls-2" d="M1239.59,160.705h-2.17v2.175h2.17v-2.175Z"/><path class="cls-2" d="M1235.26,164.789h-2.18v2.175h2.18v-2.175Z"/><path class="cls-2" d="M1239.59,164.789h-2.17v2.175h2.17v-2.175Z"/><path class="cls-2" d="M1235.26,168.871h-2.18v2.175h2.18v-2.175Z"/><path class="cls-2" d="M1239.59,168.871h-2.17v2.175h2.17v-2.175Z"/><path class="cls-2" d="M1235.26,172.954h-2.18v2.175h2.18v-2.175Z"/><path class="cls-2" d="M1239.59,172.954h-2.17v2.175h2.17v-2.175Z"/><path class="cls-2" d="M1235.26,177.037h-2.18v2.175h2.18v-2.175Z"/><path class="cls-2" d="M1239.59,177.037h-2.17v2.175h2.17v-2.175Z"/><path class="cls-2" d="M1235.26,181.12h-2.18v2.175h2.18v-2.175Z"/><path class="cls-2" d="M1239.59,181.12h-2.17v2.175h2.17v-2.175Z"/><path class="cls-2" d="M1235.26,185.202h-2.18v2.175h2.18v-2.175Z"/><path class="cls-2" d="M1239.59,185.202h-2.17v2.175h2.17v-2.175Z"/><path class="cls-2" d="M1235.26,189.284h-2.18v2.175h2.18v-2.175Z"/><path class="cls-2" d="M1239.59,189.284h-2.17v2.175h2.17v-2.175Z"/><path class="cls-2" d="M1235.26,193.367h-2.18v2.175h2.18v-2.175Z"/><path class="cls-2" d="M1239.59,193.367h-2.17v2.175h2.17v-2.175Z"/><path class="cls-2" d="M1235.26,197.448h-2.18v2.175h2.18v-2.175Z"/><path class="cls-2" d="M1239.59,197.448h-2.17v2.175h2.17v-2.175Z"/><path class="cls-2" d="M1235.26,201.532h-2.18v2.175h2.18v-2.175Z"/><path class="cls-2" d="M1239.59,201.532h-2.17v2.175h2.17v-2.175Z"/><path class="cls-2" d="M1235.26,205.614h-2.18v2.175h2.18v-2.175Z"/><path class="cls-2" d="M1239.59,205.614h-2.17v2.175h2.17v-2.175Z"/><path class="cls-2" d="M1235.26,209.697h-2.18v2.175h2.18v-2.175Z"/><path class="cls-2" d="M1239.59,209.697h-2.17v2.175h2.17v-2.175Z"/><path class="cls-2" d="M1235.26,213.779h-2.18v2.175h2.18v-2.175Z"/><path class="cls-2" d="M1239.59,213.779h-2.17v2.175h2.17v-2.175Z"/><path class="cls-2" d="M1235.26,217.862h-2.18v2.175h2.18v-2.175Z"/><path class="cls-2" d="M1239.59,217.862h-2.17v2.175h2.17v-2.175Z"/><path class="cls-2" d="M1235.26,221.944h-2.18v2.175h2.18v-2.175Z"/><path class="cls-2" d="M1239.59,221.944h-2.17v2.175h2.17v-2.175Z"/><path class="cls-2" d="M1235.26,226.028h-2.18v2.175h2.18v-2.175Z"/><path class="cls-2" d="M1239.59,226.028h-2.17v2.175h2.17v-2.175Z"/><path class="cls-2" d="M1235.26,230.11h-2.18v2.175h2.18v-2.175Z"/><path class="cls-2" d="M1239.59,230.11h-2.17v2.175h2.17v-2.175Z"/><path class="cls-2" d="M1235.26,234.195h-2.18v2.175h2.18v-2.175Z"/><path class="cls-2" d="M1239.59,234.195h-2.17v2.175h2.17v-2.175Z"/><path class="cls-2" d="M1235.26,238.276h-2.18v2.175h2.18v-2.175Z"/><path class="cls-2" d="M1239.59,238.276h-2.17v2.175h2.17v-2.175Z"/><path class="cls-2" d="M1241.88,89.147h-8.8v14.676h8.8v-14.676Z"/><path class="cls-2" d="M1241.87,86.552h-6.62v2.594h6.62v-2.594Z"/><path class="cls-2" d="M1244.42,77.191l-2.54-2.544v-19.756h2.54v22.301Z"/><path class="cls-2" d="M843.343,242.608c4.215-31.615,6.622-63.445,7.207-95.335.656-49.649-19.272-95.72-28.015-87.545-14.909,13.941-8.793,172.053-8.793,182.88h29.601Z"/><path class="cls-2" d="M824.666,58.781s30.282,24.567,12.099,183.82"/><path class="cls-2" d="M824.666,58.781s23.101,24.73,8.809,183.82"/><path class="cls-2" d="M824.666,58.781s17.03,19.475,5.522,183.82"/><path class="cls-2" d="M824.666,58.781s8.104,22.923,2.231,183.82"/><path class="cls-2" d="M824.667,58.781s-14.185,11.588-7.632,183.82"/><path class="cls-2" d="M824.665,58.781s-7.122,13.951-4.344,183.82"/><path class="cls-2" d="M824.666,58.781s0,14.669-1.055,183.82"/><path class="cls-2" d="M832.566,72.935h3.897"/><path class="cls-2" d="M834.937,80.231h4.548"/><path class="cls-2" d="M836.794,87.524h5.185"/><path class="cls-2" d="M838.271,94.821h5.803"/><path class="cls-2" d="M839.457,102.115h6.386"/><path class="cls-2" d="M840.395,109.411h6.913"/><path class="cls-2" d="M841.134,116.706h7.366"/><path class="cls-2" d="M841.694,124.002h7.723"/><path class="cls-2" d="M842.107,131.297h7.967"/><path class="cls-2" d="M842.367,138.592h8.09"/><path class="cls-2" d="M842.577,145.887h8.185"/><path class="cls-2" d="M842.577,153.183h7.881"/><path class="cls-2" d="M842.517,160.477h7.721"/><path class="cls-2" d="M842.367,167.773h7.595"/><path class="cls-2" d="M842.13,175.067h7.481"/><path class="cls-2" d="M841.813,182.364h7.379"/><path class="cls-2" d="M841.398,189.659h7.312"/><path class="cls-2" d="M840.968,196.954h7.198"/><path class="cls-2" d="M840.443,204.249h7.116"/><path class="cls-2" d="M839.859,211.545h7.034"/><path class="cls-2" d="M839.216,218.839h7.05"/><path class="cls-2" d="M838.52,226.136h6.86"/><path class="cls-2" d="M837.771,233.43h6.755"/><path class="cls-2" d="M836.977,240.726h6.623"/><path class="cls-2" d="M735.758,123.52h-15.932v119.005h15.932v-119.005Z"/><path class="cls-2" d="M732.465,127.737h-9.341v2.761h9.341v-2.761Z"/><path class="cls-2" d="M732.465,134.067h-9.341v11.34h9.341v-11.34Z"/><path class="cls-2" d="M723.124,145.41h9.341"/><path class="cls-2" d="M723.124,149.826h9.341"/><path class="cls-2" d="M723.124,154.244h9.341"/><path class="cls-2" d="M723.124,158.663h9.341"/><path class="cls-2" d="M723.124,163.079h9.341"/><path class="cls-2" d="M723.124,167.498h9.341"/><path class="cls-2" d="M723.124,171.916h9.341"/><path class="cls-2" d="M723.124,176.335h9.341"/><path class="cls-2" d="M723.124,180.752h9.341"/><path class="cls-2" d="M723.124,185.169h9.341"/><path class="cls-2" d="M723.124,189.588h9.341"/><path class="cls-2" d="M723.124,194.006h9.341"/><path class="cls-2" d="M723.124,198.423h9.341"/><path class="cls-2" d="M723.124,202.841h9.341"/><path class="cls-2" d="M723.124,207.261h9.341"/><path class="cls-2" d="M723.124,211.677h9.341"/><path class="cls-2" d="M723.124,216.095h9.341"/><path class="cls-2" d="M723.124,220.514h9.341"/><path class="cls-2" d="M723.124,224.931h9.341"/><path class="cls-2" d="M723.124,229.35h9.341"/><path class="cls-2" d="M723.124,233.768h9.341"/><path class="cls-2" d="M723.124,238.185h9.341"/><path class="cls-2" d="M774.989,127.737h-9.342v2.761h9.342v-2.761Z"/><path class="cls-2" d="M774.989,134.067h-9.342v11.34h9.342v-11.34Z"/><path class="cls-2" d="M765.647,145.409h9.342"/><path class="cls-2" d="M765.647,149.826h9.342"/><path class="cls-2" d="M765.647,154.244h9.342"/><path class="cls-2" d="M765.647,158.663h9.342"/><path class="cls-2" d="M765.647,163.079h9.342"/><path class="cls-2" d="M765.647,167.498h9.342"/><path class="cls-2" d="M765.647,171.916h9.342"/><path class="cls-2" d="M765.647,176.335h9.342"/><path class="cls-2" d="M765.647,180.752h9.342"/><path class="cls-2" d="M765.647,185.169h9.342"/><path class="cls-2" d="M765.647,189.587h9.342"/><path class="cls-2" d="M765.647,194.006h9.342"/><path class="cls-2" d="M765.647,198.422h9.342"/><path class="cls-2" d="M765.647,202.841h9.342"/><path class="cls-2" d="M765.647,207.26h9.342"/><path class="cls-2" d="M765.647,211.676h9.342"/><path class="cls-2" d="M765.647,216.095h9.342"/><path class="cls-2" d="M765.647,220.513h9.342"/><path class="cls-2" d="M765.647,224.931h9.342"/><path class="cls-2" d="M765.647,229.349h9.342"/><path class="cls-2" d="M765.647,233.767h9.342"/><path class="cls-2" d="M765.647,238.184h9.342"/><path class="cls-2" d="M778.283,123.52h-15.931v119.005h15.931v-119.005Z"/><path class="cls-2" d="M762.351,209.298h-26.592v33.225h26.592v-33.225Z"/><path class="cls-2" d="M762.351,180.752h-26.592v22.089h26.592v-22.089Z"/><path class="cls-2" d="M762.351,154.13h-26.592v26.623h26.592v-26.623Z"/><path class="cls-2" d="M762.351,123.52h-26.592v30.61h26.592v-30.61Z"/><path class="cls-2" d="M744.316,123.52v9.84"/><path class="cls-2" d="M747.477,123.52v9.84"/><path class="cls-2" d="M750.638,123.52v9.84"/><path class="cls-2" d="M753.794,123.52v9.84"/><path class="cls-2" d="M747.477,105.496v18.023"/><path class="cls-2" d="M750.634,105.496v18.023"/><path class="cls-2" d="M753.793,105.496h-9.477v18.023h9.477v-18.023Z"/><path class="cls-2" d="M762.351,109.411h-8.557v14.108h8.557v-14.108Z"/><path class="cls-2" d="M744.316,109.411h-8.557v14.108h8.557v-14.108Z"/><path class="cls-5" d="M685.39,253.623h166.332"/><path class="cls-5" d="M991.96,253.623h98.97"/><path class="cls-5" d="M878.335,268.715h153.285"/><path class="cls-5" d="M748.352,281.293h80.454"/><path class="cls-5" d="M1073.97,281.293h155.96"/><path class="cls-2" d="M715.279,5.249c0-.449-.133-.888-.382-1.262-.25-.373-.604-.665-1.018-.836-.415-.172-.871-.217-1.311-.129-.44.088-.844.304-1.161.622-.318.318-.534.722-.621,1.163-.088.441-.043.897.129,1.312.172.415.462.77.835,1.019.373.25.812.383,1.261.383h6.573"/><path class="cls-2" d="M829.209,54.886c0-.449-.133-.888-.383-1.262-.249-.374-.603-.665-1.018-.837-.414-.172-.87-.217-1.31-.129s-.845.304-1.162.622c-.317.318-.533.722-.621,1.163-.087.44-.042.897.13,1.312.171.415.462.77.835,1.019.373.25.812.383,1.26.383h6.574"/><path class="cls-2" d="M900.211,21.271c0-.449-.134-.888-.383-1.262-.249-.373-.603-.664-1.018-.836-.414-.172-.87-.217-1.31-.129-.44.088-.845.304-1.162.622-.317.318-.533.722-.621,1.163-.087.441-.042.897.129,1.312.172.415.463.77.836,1.019.373.25.812.383,1.26.383h6.574"/><path class="cls-2" d="M998.199,90.722c0-.449-.133-.888-.382-1.262-.25-.373-.604-.665-1.018-.837-.414-.172-.87-.217-1.31-.13s-.845.304-1.162.621c-.317.317-.533.722-.621,1.162-.088.44-.043.897.128,1.312.172.415.462.77.835,1.02.373.25.811.383,1.26.384h6.581"/><path class="cls-2" d="M1055.1,22.314c0-.449-.13-.888-.38-1.262-.25-.373-.6-.664-1.02-.836-.41-.172-.87-.217-1.31-.129-.44.088-.84.304-1.16.622-.32.318-.53.722-.62,1.163-.09.441-.04.897.13,1.312.17.415.46.77.83,1.019.38.25.82.383,1.26.383h6.58"/><path class="cls-2" d="M1134.81,63.062c0-.449-.13-.888-.38-1.262-.25-.374-.6-.665-1.02-.837-.41-.172-.87-.217-1.31-.129-.44.088-.84.304-1.16.622-.32.318-.53.722-.62,1.163-.09.44-.04.897.13,1.312.17.415.46.77.83,1.019.38.25.82.383,1.26.383h6.58"/><path class="cls-2" d="M1185.92,117.511c0-.449-.13-.888-.38-1.261-.25-.374-.61-.665-1.02-.837-.42-.172-.87-.217-1.31-.129-.44.087-.85.303-1.16.621-.32.317-.54.722-.62,1.162-.09.441-.05.897.12,1.312.18.415.47.77.84,1.02s.81.383,1.26.384h6.57"/><path class="cls-2" d="M1201.89,8.616c0-.449-.14-.888-.38-1.262-.25-.373-.61-.665-1.02-.836-.42-.172-.87-.217-1.31-.129-.44.088-.85.304-1.17.622-.31.318-.53.722-.62,1.163-.08.441-.04.897.13,1.312.17.415.47.77.84,1.019.37.25.81.383,1.26.383h6.57"/><path class="cls-2" d="M1270.96,47.871c0-.449-.14-.888-.39-1.262-.24-.373-.6-.665-1.01-.836-.42-.172-.87-.217-1.31-.129-.44.088-.85.304-1.17.622-.31.318-.53.722-.62,1.163-.08.441-.04.897.13,1.312.17.415.47.77.84,1.019.37.25.81.383,1.26.383h6.57"/><path class="cls-4" d="M649.829,110.947c0,.255-.075.505-.216.717-.142.212-.342.377-.578.475-.235.098-.493.124-.743.074-.25-.049-.479-.172-.66-.352-.18-.18-.302-.41-.352-.66-.05-.25-.025-.509.073-.744.097-.236.262-.437.474-.579.211-.142.46-.217.715-.217.341,0,.668.135.909.377.241.241.377.568.378.909Z"/><path class="cls-4" d="M649.829,110.947c0,.255-.075.505-.216.717-.142.212-.342.377-.578.475-.235.098-.493.124-.743.074-.25-.049-.479-.172-.66-.352-.18-.18-.302-.41-.352-.66-.05-.25-.025-.509.073-.744.097-.236.262-.437.474-.579.211-.142.46-.217.715-.217.341,0,.668.135.909.377.241.241.377.568.378.909Z"/><path class="cls-4" d="M647.212,1.687c0,.254-.075.503-.217.715-.141.212-.342.377-.576.474-.235.097-.494.123-.743.073-.249-.05-.478-.172-.658-.352-.18-.18-.302-.409-.352-.659-.049-.25-.024-.508.073-.743.098-.235.262-.436.474-.577.211-.141.46-.217.714-.217.34,0,.667.136.908.377.241.241.377.568.377.909Z"/><path class="cls-4" d="M647.212,1.687c0,.254-.075.503-.217.715-.141.212-.342.377-.576.474-.235.097-.494.123-.743.073-.249-.05-.478-.172-.658-.352-.18-.18-.302-.409-.352-.659-.049-.25-.024-.508.073-.743.098-.235.262-.436.474-.577.211-.141.46-.217.714-.217.34,0,.667.136.908.377.241.241.377.568.377.909Z"/><path class="cls-4" d="M758.984,17.712c0,.254-.075.503-.216.715-.141.212-.342.376-.577.474-.235.097-.493.123-.742.073-.25-.05-.479-.172-.659-.352-.179-.18-.302-.409-.351-.659-.05-.25-.024-.508.073-.743.097-.235.262-.436.473-.577.212-.141.46-.217.714-.217.341,0,.668.136.908.377.241.241.377.568.377.909Z"/><path class="cls-4" d="M758.984,17.712c0,.254-.075.503-.216.715-.141.212-.342.376-.577.474-.235.097-.493.123-.742.073-.25-.05-.479-.172-.659-.352-.179-.18-.302-.409-.351-.659-.05-.25-.024-.508.073-.743.097-.235.262-.436.473-.577.212-.141.46-.217.714-.217.341,0,.668.136.908.377.241.241.377.568.377.909Z"/><path class="cls-4" d="M794.846,90.897c-.001.255-.076.503-.218.714-.141.211-.342.376-.577.473-.235.097-.493.122-.742.073-.249-.05-.478-.173-.658-.353-.179-.18-.302-.409-.351-.659-.049-.249-.024-.508.073-.743.098-.235.262-.436.474-.577.211-.141.459-.217.714-.217.341,0,.667.136.908.378.241.242.377.569.377.91Z"/><path class="cls-4" d="M794.846,90.897c-.001.255-.076.503-.218.714-.141.211-.342.376-.577.473-.235.097-.493.122-.742.073-.249-.05-.478-.173-.658-.353-.179-.18-.302-.409-.351-.659-.049-.249-.024-.508.073-.743.098-.235.262-.436.474-.577.211-.141.459-.217.714-.217.341,0,.667.136.908.378.241.242.377.569.377.91Z"/><path class="cls-4" d="M956.267,51.45c0,.255-.075.504-.217.716-.141.212-.342.377-.577.475-.235.098-.494.123-.744.073-.249-.05-.479-.173-.659-.353-.18-.18-.302-.41-.352-.66-.05-.25-.024-.509.073-.744.098-.235.263-.437.474-.578.212-.142.461-.217.715-.217.341,0,.669.136.91.377.241.242.377.569.377.911Z"/><path class="cls-4" d="M956.267,51.45c0,.255-.075.504-.217.716-.141.212-.342.377-.577.475-.235.098-.494.123-.744.073-.249-.05-.479-.173-.659-.353-.18-.18-.302-.41-.352-.66-.05-.25-.024-.509.073-.744.098-.235.263-.437.474-.578.212-.142.461-.217.715-.217.341,0,.669.136.91.377.241.242.377.569.377.911Z"/><path class="cls-4" d="M1069.54,54.192c0,.254-.07.503-.22.715-.14.212-.34.376-.57.474-.24.097-.49.123-.74.073-.25-.049-.48-.172-.66-.352-.18-.18-.3-.409-.35-.658s-.03-.508.07-.743c.1-.235.26-.436.47-.578.21-.142.46-.217.71-.218.35,0,.67.135.91.377.24.241.38.569.38.91Z"/><path class="cls-4" d="M1069.54,54.192c0,.254-.07.503-.22.715-.14.212-.34.376-.57.474-.24.097-.49.123-.74.073-.25-.049-.48-.172-.66-.352-.18-.18-.3-.409-.35-.658s-.03-.508.07-.743c.1-.235.26-.436.47-.578.21-.142.46-.217.71-.218.35,0,.67.135.91.377.24.241.38.569.38.91Z"/><path class="cls-4" d="M930.605,126.339c0,.254-.076.503-.217.714-.141.212-.342.377-.577.474-.235.098-.493.123-.742.074-.25-.05-.479-.173-.658-.353-.18-.179-.303-.409-.352-.658-.05-.25-.024-.509.073-.744.097-.235.262-.436.473-.577.212-.142.46-.217.714-.217.341,0,.668.135.909.377.241.241.377.568.377.91Z"/><path class="cls-4" d="M930.605,126.339c0,.254-.076.503-.217.714-.141.212-.342.377-.577.474-.235.098-.493.123-.742.074-.25-.05-.479-.173-.658-.353-.18-.179-.303-.409-.352-.658-.05-.25-.024-.509.073-.744.097-.235.262-.436.473-.577.212-.142.46-.217.714-.217.341,0,.668.135.909.377.241.241.377.568.377.91Z"/><path class="cls-4" d="M1043.26,211.838c0,.254-.08.503-.22.714-.14.212-.34.376-.58.473-.23.098-.49.123-.74.073s-.48-.173-.66-.353c-.18-.18-.3-.409-.35-.658-.05-.25-.02-.509.08-.744.09-.235.26-.436.47-.577.21-.141.46-.217.71-.217.17,0,.34.034.5.099.15.064.29.159.41.279.12.12.22.262.28.418.07.156.1.324.1.493Z"/><path class="cls-4" d="M1043.26,211.838c0,.254-.08.503-.22.714-.14.212-.34.376-.58.473-.23.098-.49.123-.74.073s-.48-.173-.66-.353c-.18-.18-.3-.409-.35-.658-.05-.25-.02-.509.08-.744.09-.235.26-.436.47-.577.21-.141.46-.217.71-.217.17,0,.34.034.5.099.15.064.29.159.41.279.12.12.22.262.28.418.07.156.1.324.1.493Z"/><path class="cls-4" d="M1124.64,127.857c0,.255-.08.504-.22.716-.14.212-.34.377-.58.475-.23.097-.49.123-.74.073-.25-.05-.48-.172-.66-.353-.18-.18-.3-.409-.35-.659-.05-.25-.03-.509.07-.745.1-.235.26-.436.47-.578.22-.141.46-.217.72-.217.17,0,.34.033.49.098.16.064.3.159.42.279.12.12.21.262.28.418.06.156.1.324.1.493Z"/><path class="cls-4" d="M1124.64,127.857c0,.255-.08.504-.22.716-.14.212-.34.377-.58.475-.23.097-.49.123-.74.073-.25-.05-.48-.172-.66-.353-.18-.18-.3-.409-.35-.659-.05-.25-.03-.509.07-.745.1-.235.26-.436.47-.578.22-.141.46-.217.72-.217.17,0,.34.033.49.098.16.064.3.159.42.279.12.12.21.262.28.418.06.156.1.324.1.493Z"/><path class="cls-4" d="M1160.95,13.467c.71,0,1.28-.577,1.28-1.288s-.57-1.288-1.28-1.288c-.72,0-1.29.577-1.29,1.288s.57,1.288,1.29,1.288Z"/><path class="cls-4" d="M1160.95,13.467c.71,0,1.28-.577,1.28-1.288s-.57-1.288-1.28-1.288c-.72,0-1.29.577-1.29,1.288s.57,1.288,1.29,1.288Z"/><path class="cls-4" d="M1246.2,5.562c.71,0,1.29-.577,1.29-1.288s-.58-1.288-1.29-1.288-1.29.577-1.29,1.288.58,1.288,1.29,1.288Z"/><path class="cls-4" d="M1246.2,5.562c.71,0,1.29-.577,1.29-1.288s-.58-1.288-1.29-1.288-1.29.577-1.29,1.288.58,1.288,1.29,1.288Z"/><path class="cls-4" d="M1280.5,163.484c0,.255-.07.504-.21.716-.15.212-.35.377-.58.475-.24.098-.5.124-.75.074-.25-.049-.47-.172-.65-.352-.19-.18-.31-.41-.36-.66-.05-.25-.02-.509.08-.744.09-.236.26-.437.47-.579.21-.142.46-.217.71-.217.35,0,.67.135.91.377.25.241.38.568.38.91Z"/><path class="cls-4" d="M1280.5,163.484c0,.255-.07.504-.21.716-.15.212-.35.377-.58.475-.24.098-.5.124-.75.074-.25-.049-.47-.172-.65-.352-.19-.18-.31-.41-.36-.66-.05-.25-.02-.509.08-.744.09-.236.26-.437.47-.579.21-.142.46-.217.71-.217.35,0,.67.135.91.377.25.241.38.568.38.91Z"/><path class="cls-3" d="M637.92,182.635c-.236.02-.456.128-.617.303-.16.175-.249.404-.249.642s.089.466.249.641c.161.175.381.283.617.304.237-.021.457-.129.617-.304.161-.175.25-.404.25-.641s-.089-.467-.25-.642c-.16-.175-.38-.283-.617-.303Z"/><path class="cls-3" d="M957.479,4.273c-.236.02-.457.128-.617.303-.161.175-.25.404-.25.641s.089.466.25.641c.16.175.381.283.617.303.236-.02.457-.128.617-.303.16-.175.25-.404.25-.641s-.09-.466-.25-.641c-.16-.175-.381-.283-.617-.303Z"/><path class="cls-3" d="M1017.23,47.872c-.24.02-.46.129-.62.303-.16.175-.25.404-.25.641s.09.466.25.641c.16.175.38.283.62.304.23-.02.45-.129.61-.304.16-.175.25-.404.25-.641s-.09-.466-.25-.641c-.16-.175-.38-.283-.61-.303Z"/><path class="cls-3" d="M1083.04,1.441c-.24.02-.46.128-.62.303-.16.175-.25.404-.25.641s.09.466.25.641c.16.175.38.283.62.303.24-.02.46-.128.62-.303.16-.175.25-.404.25-.641s-.09-.466-.25-.641c-.16-.175-.38-.283-.62-.303Z"/><path class="cls-3" d="M1110.91,211.567c-.24.02-.46.128-.62.303-.16.175-.25.404-.25.641s.09.467.25.642c.16.175.38.283.62.303.24-.02.46-.128.62-.303.16-.175.25-.404.25-.642s-.09-.466-.25-.641c-.16-.175-.38-.283-.62-.303Z"/><path class="cls-3" d="M1201.77,51.451c-.24.02-.46.128-.62.303-.16.175-.25.404-.25.641s.09.466.25.641c.16.175.38.283.62.304.24-.02.46-.129.62-.304.16-.175.25-.404.25-.641s-.09-.466-.25-.641c-.16-.175-.38-.283-.62-.303Z"/><path class="cls-3" d="M1276.05,100.296c-.24.02-.46.128-.62.303-.16.175-.25.404-.25.642s.09.466.25.641c.16.175.38.284.62.304.23-.02.45-.129.62-.304.16-.175.24-.404.24-.641s-.08-.467-.24-.642c-.17-.175-.39-.283-.62-.303Z"/><path class="cls-3" d="M1267.33,208.35c-.24.02-.46.129-.62.304-.16.175-.25.403-.25.641s.09.467.25.641c.16.175.38.284.62.304.24-.02.46-.129.62-.304.16-.174.25-.403.25-.641s-.09-.466-.25-.641c-.16-.175-.38-.284-.62-.304Z"/><path class="cls-3" d="M966.528,213.778c-.237.02-.457.128-.617.303-.161.175-.25.404-.25.642s.089.466.25.641c.16.175.38.283.617.304.236-.021.456-.129.617-.304.16-.175.249-.404.249-.641s-.089-.467-.249-.642c-.161-.175-.381-.283-.617-.303Z"/><path class="cls-3" d="M791.342,147.827c-.236.02-.456.128-.617.303-.16.175-.249.404-.249.642s.089.466.249.641c.161.175.381.283.617.303.237-.02.457-.128.617-.303.161-.175.25-.404.25-.641s-.089-.467-.25-.642c-.16-.175-.38-.283-.617-.303Z"/><path class="cls-3" d="M706.75,216.588c-.236.02-.456.128-.617.303-.16.175-.249.404-.249.641s.089.467.249.642c.161.175.381.283.617.303.237-.02.457-.128.617-.303.161-.175.25-.404.25-.642s-.089-.466-.25-.641c-.16-.175-.38-.283-.617-.303Z"/><path class="cls-3" d="M869.238,113.56c-.237.02-.457.128-.617.303-.161.175-.25.404-.25.642s.089.466.25.641c.16.175.38.283.617.303.236-.02.456-.128.617-.303.16-.175.249-.404.249-.641s-.089-.467-.249-.642c-.161-.175-.381-.283-.617-.303Z"/><path class="cls-3" d="M1002.5,133.358c-.24.02-.46.128-.62.303-.16.175-.25.404-.25.642s.09.466.25.641c.16.175.38.284.62.304.24-.02.46-.129.62-.304.16-.175.25-.404.25-.641s-.09-.467-.25-.642c-.16-.175-.38-.283-.62-.303Z"/></g></g></svg>