<?xml version="1.0" encoding="UTF-8"?><svg id="Layer_2" xmlns="http://www.w3.org/2000/svg" viewBox="0 0 394.192 173"><defs><style>.cls-1,.cls-2{stroke-width:.9px;}.cls-1,.cls-2,.cls-3,.cls-4,.cls-5{stroke:#6598cb;}.cls-1,.cls-2,.cls-4,.cls-5{fill:none;}.cls-2,.cls-4,.cls-5{stroke-linecap:round;stroke-linejoin:round;}.cls-3{fill:#3d5184;}.cls-4{stroke-width:.8px;}.cls-5{stroke-width:1.2px;}</style></defs><g id="Layer_1-2"><path class="cls-5" d="M1.857,148.712h389.21"/><path class="cls-2" d="M354.71,111.681c-1.743-.271-6.026-.711-15.458-.711s-13.715.44-15.458.711c-.082.016-.157.055-.216.113-.059.058-.1.133-.117.214-.017.082-.01.166.021.244.031.077.084.143.152.19,2.929,1.867,12.072,8.123,12.072,13.428v22.842h7.092v-22.841c0-5.305,9.143-11.561,12.071-13.428.069-.047.123-.113.154-.191.031-.077.038-.162.021-.243-.017-.082-.058-.157-.117-.215-.06-.058-.135-.097-.217-.113Z"/><path class="cls-2" d="M354.71,111.681c-.525-.081-1.272-.176-2.317-.272-3.794,2.858-10.289,8.461-10.289,13.327v23.976h.696v-22.837c0-5.305,9.142-11.561,12.07-13.428.071-.046.125-.113.157-.191.032-.078.04-.164.023-.246-.018-.083-.059-.158-.12-.217-.061-.059-.137-.097-.22-.112Z"/><path class="cls-2" d="M323.793,111.681c.525-.081,1.273-.176,2.318-.272,3.795,2.858,10.29,8.461,10.29,13.327v23.976h-.696v-22.837c0-5.305-9.142-11.561-12.07-13.428-.07-.046-.125-.113-.157-.191-.032-.077-.04-.163-.023-.246.017-.082.058-.158.119-.216.06-.059.137-.098.219-.113Z"/><path class="cls-2" d="M332.338,111.061c1.783,3.284,5.231,10.085,5.231,13.763v23.88h1.039v-37.733c-2.428.005-4.503.04-6.27.09Z"/><path class="cls-2" d="M346.165,111.061c-1.767-.054-3.841-.089-6.27-.094v37.742h1.039v-23.879c0-3.679,3.443-10.481,5.231-13.769Z"/><path class="cls-1" d="M320.468,108.022c-1.915-.299-6.621-.782-16.991-.782s-15.071.484-16.992.782c-.092.013-.177.055-.244.119-.067.064-.114.146-.133.237-.019.091-.01.186.026.271.036.086.098.158.176.208,3.217,2.052,13.264,8.927,13.264,14.756v25.099h7.793v-25.099c0-5.829,10.047-12.704,13.264-14.756.078-.049.139-.12.176-.205.036-.085.047-.178.029-.269-.018-.09-.062-.173-.128-.238-.066-.065-.149-.108-.24-.123Z"/><path class="cls-2" d="M320.468,108.022c-1.915-.299-6.621-.782-16.991-.782s-15.071.484-16.992.782c-.092.013-.177.055-.244.119-.067.064-.114.146-.133.237-.019.091-.01.186.026.271.036.086.098.158.176.208,3.217,2.052,13.264,8.927,13.264,14.756v25.099h7.793v-25.099c0-5.829,10.047-12.704,13.264-14.756.078-.049.139-.12.176-.205.036-.085.047-.178.029-.269-.018-.09-.062-.173-.128-.238-.066-.065-.149-.108-.24-.123Z"/><path class="cls-2" d="M320.468,108.022c-.573-.09-1.398-.195-2.547-.3-4.169,3.14-11.308,9.297-11.308,14.645v26.346h.765v-25.099c0-5.829,10.047-12.704,13.264-14.756.078-.049.14-.122.176-.208.037-.085.046-.18.027-.271-.019-.091-.065-.174-.133-.238-.067-.064-.153-.106-.244-.119Z"/><path class="cls-2" d="M286.495,108.022c.573-.09,1.398-.195,2.547-.3,4.169,3.14,11.308,9.297,11.308,14.645v26.346h-.765v-25.099c0-5.829-10.047-12.704-13.264-14.756-.078-.049-.14-.122-.176-.208-.037-.085-.046-.18-.027-.271.019-.091.065-.174.133-.238.067-.064.153-.106.244-.119Z"/><path class="cls-2" d="M295.884,107.344c1.964,3.608,5.749,11.083,5.749,15.124v26.25h1.142v-41.477c-2.67.006-4.951.044-6.891.103Z"/><path class="cls-2" d="M311.079,107.344c-1.941-.059-4.221-.098-6.891-.105v41.479h1.143v-26.25c0-4.046,3.784-11.515,5.748-15.124Z"/><path class="cls-1" d="M344.781,98.821c-2.349-.366-8.118-.958-20.826-.958s-18.479.593-20.828.958c-.112.018-.215.069-.297.148s-.139.18-.161.292c-.023.111-.012.227.033.331.044.105.12.193.216.254,3.944,2.516,16.263,10.94,16.263,18.094v30.773h9.555v-30.775c0-7.146,12.319-15.576,16.263-18.093.096-.061.17-.15.214-.255.044-.105.055-.221.031-.333-.024-.111-.081-.213-.164-.291-.082-.078-.187-.129-.299-.145Z"/><path class="cls-2" d="M344.781,98.821c-2.349-.366-8.118-.958-20.826-.958s-18.479.593-20.828.958c-.112.018-.215.069-.297.148s-.139.18-.161.292c-.023.111-.012.227.033.331.044.105.12.193.216.254,3.944,2.516,16.263,10.94,16.263,18.094v30.773h9.555v-30.775c0-7.146,12.319-15.576,16.263-18.093.096-.061.17-.15.214-.255.044-.105.055-.221.031-.333-.024-.111-.081-.213-.164-.291-.082-.078-.187-.129-.299-.145Z"/><path class="cls-2" d="M344.781,98.821c-.703-.105-1.714-.239-3.122-.367-5.112,3.85-13.864,11.399-13.864,17.956v32.302h.938v-30.774c0-7.147,12.318-15.576,16.262-18.093.096-.061.171-.15.215-.255.044-.104.055-.22.032-.331-.024-.111-.08-.213-.162-.291-.083-.078-.187-.129-.299-.147Z"/><path class="cls-2" d="M303.128,98.821c.702-.105,1.713-.239,3.122-.367,5.112,3.85,13.864,11.399,13.864,17.956v32.302h-.937v-30.774c0-7.147-12.319-15.576-16.263-18.093-.096-.061-.171-.15-.215-.255-.044-.104-.055-.22-.032-.331.023-.111.08-.213.162-.291s.187-.129.299-.147Z"/><path class="cls-2" d="M314.638,97.99c2.412,4.425,7.049,13.588,7.049,18.544v32.179h1.4v-50.849c-3.278.007-6.069.054-8.449.126Z"/><path class="cls-2" d="M333.27,97.99c-2.38-.072-5.176-.119-8.45-.126v50.849h1.397v-32.179c0-4.956,4.643-14.119,7.053-18.544Z"/><path class="cls-2" d="M278.728,148.712c0-47.899-15.596-99.71-15.596-99.71h-3.898s7.005,18.788-6.818,26.393c0,0,7.237,62.647,11.912,73.32l14.4-.004Z"/><path class="cls-2" d="M263.133,49.002s15.381,22.27,14.924,28.501c-.457,6.232-2.914,27.06-2.756,28.15"/><path class="cls-2" d="M264.327,148.712h-7.889v-41.973"/><path class="cls-2" d="M259.964,51.445h3.874"/><path class="cls-2" d="M260.565,54.317h4.085"/><path class="cls-2" d="M260.918,57.187h4.479"/><path class="cls-2" d="M261.001,60.059h5.139"/><path class="cls-2" d="M260.771,62.931h6.091"/><path class="cls-2" d="M260.574,65.803h6.988"/><path class="cls-2" d="M261.256,68.674h7.045"/><path class="cls-2" d="M261.918,71.545h6.988"/><path class="cls-2" d="M262.561,74.417h6.988"/><path class="cls-2" d="M263.185,77.289h6.988"/><path class="cls-2" d="M263.79,80.16h6.988"/><path class="cls-2" d="M264.376,83.032h6.988"/><path class="cls-2" d="M264.943,85.904h6.988"/><path class="cls-2" d="M265.492,88.775h6.988"/><path class="cls-2" d="M266.021,91.646h6.988"/><path class="cls-2" d="M266.53,94.518h6.948"/><path class="cls-2" d="M267.021,97.39h6.988"/><path class="cls-2" d="M267.489,100.26h6.988"/><path class="cls-2" d="M267.987,103.132h6.938"/><path class="cls-2" d="M268.437,106.004h6.864"/><path class="cls-2" d="M268.769,108.876h6.988"/><path class="cls-2" d="M269.151,111.747h6.988"/><path class="cls-2" d="M269.513,114.619h6.988"/><path class="cls-2" d="M269.848,117.49h6.988"/><path class="cls-2" d="M270.161,120.362h6.988"/><path class="cls-2" d="M270.471,123.233h6.965"/><path class="cls-2" d="M270.709,126.105h6.988"/><path class="cls-2" d="M270.943,128.976h6.988"/><path class="cls-2" d="M271.149,131.847h6.918"/><path class="cls-2" d="M271.328,134.719h6.988"/><path class="cls-2" d="M271.476,137.591h6.988"/><path class="cls-2" d="M271.593,140.463h6.988"/><path class="cls-2" d="M271.739,143.334h6.916"/><path class="cls-2" d="M271.739,146.205h6.988"/><path class="cls-5" d="M218.795,148.711h-39.42l9.069-69.573h21.284l9.067,69.573Z"/><path class="cls-5" d="M207.409,142.215l-5.649-43.34h-5.349l-6.497,49.833"/><path class="cls-5" d="M204.742,137.489h-13.369l.452-3.472h12.917v3.472Z"/><path class="cls-5" d="M204.744,134.025h-6.685v3.467h6.685v-3.467Z"/><path class="cls-5" d="M208.379,148.712h-18.469l.848-6.497h19.245l-1.624,6.497Z"/><path class="cls-5" d="M193.74,119.335l2.275,14.69"/><path class="cls-5" d="M196.004,107.433l4.118,26.591"/><path class="cls-5" d="M201.437,98.879l-5.443,35.146"/><path class="cls-5" d="M199.42,137.492l-.732,4.728"/><path class="cls-5" d="M197.285,142.215l-.732-4.723"/><path class="cls-5" d="M195.185,137.492l-.732,4.723"/><path class="cls-5" d="M193.048,142.215l-.732-4.723"/><path class="cls-5" d="M203.656,137.492l-.732,4.723"/><path class="cls-5" d="M201.521,142.215l-.732-4.723"/><path class="cls-5" d="M205.477,142.215l-.733-4.723"/><path class="cls-5" d="M198.787,98.879l5.443,35.146"/><path class="cls-5" d="M203.49,112.143l-3.388,21.882"/><path class="cls-5" d="M205.368,126.543l-1.159,7.482"/><path class="cls-5" d="M197.328,98.879l-1.334,8.613"/><path class="cls-5" d="M188.182,81.132h2.977"/><path class="cls-5" d="M187.922,83.123h2.977"/><path class="cls-5" d="M187.664,85.116h2.978"/><path class="cls-5" d="M187.402,87.108h2.978"/><path class="cls-5" d="M187.145,89.099h2.977"/><path class="cls-5" d="M186.885,91.092h2.977"/><path class="cls-5" d="M186.625,93.083h2.977"/><path class="cls-5" d="M186.365,95.075h2.978"/><path class="cls-5" d="M186.105,97.067h2.978"/><path class="cls-5" d="M185.846,99.059h2.977"/><path class="cls-5" d="M185.586,101.051h2.977"/><path class="cls-5" d="M185.326,103.043h2.978"/><path class="cls-5" d="M185.066,105.034h2.978"/><path class="cls-5" d="M184.807,107.027h2.977"/><path class="cls-5" d="M184.547,109.018h2.977"/><path class="cls-5" d="M184.287,111.01h2.978"/><path class="cls-5" d="M184.027,113.002h2.978"/><path class="cls-5" d="M183.768,114.994h2.977"/><path class="cls-5" d="M183.51,116.985h2.977"/><path class="cls-5" d="M183.248,118.978h2.978"/><path class="cls-5" d="M182.988,120.969h2.978"/><path class="cls-5" d="M182.729,122.961h2.977"/><path class="cls-5" d="M182.469,124.953h2.977"/><path class="cls-5" d="M182.211,126.945h2.977"/><path class="cls-5" d="M181.949,128.937h2.978"/><path class="cls-5" d="M181.691,130.929h2.978"/><path class="cls-5" d="M181.432,132.92h2.977"/><path class="cls-5" d="M181.17,134.913h2.977"/><path class="cls-5" d="M180.912,136.904h2.978"/><path class="cls-5" d="M180.652,138.897h2.978"/><path class="cls-5" d="M180.393,140.888h2.977"/><path class="cls-5" d="M180.133,142.88h2.977"/><path class="cls-5" d="M179.873,144.872h2.978"/><path class="cls-5" d="M179.613,146.864h2.978"/><path class="cls-5" d="M209.983,81.132h-2.977"/><path class="cls-5" d="M210.243,83.123h-2.977"/><path class="cls-5" d="M210.503,85.116h-2.978"/><path class="cls-5" d="M210.763,87.108h-2.978"/><path class="cls-5" d="M211.022,89.099h-2.977"/><path class="cls-5" d="M211.282,91.092h-2.977"/><path class="cls-5" d="M211.54,93.083h-2.978"/><path class="cls-5" d="M211.802,95.075h-2.978"/><path class="cls-5" d="M212.061,97.067h-2.977"/><path class="cls-5" d="M212.319,99.059h-2.977"/><path class="cls-5" d="M212.581,101.051h-2.977"/><path class="cls-5" d="M212.839,103.043h-2.978"/><path class="cls-5" d="M213.099,105.034h-2.978"/><path class="cls-5" d="M213.358,107.027h-2.977"/><path class="cls-5" d="M213.618,109.018h-2.977"/><path class="cls-5" d="M213.878,111.01h-2.978"/><path class="cls-5" d="M214.138,113.002h-2.978"/><path class="cls-5" d="M214.397,114.994h-2.977"/><path class="cls-5" d="M214.657,116.985h-2.977"/><path class="cls-5" d="M214.917,118.978h-2.978"/><path class="cls-5" d="M215.177,120.969h-2.978"/><path class="cls-5" d="M215.436,122.961h-2.977"/><path class="cls-5" d="M215.696,124.953h-2.977"/><path class="cls-5" d="M215.956,126.945h-2.977"/><path class="cls-5" d="M216.216,128.937h-2.978"/><path class="cls-5" d="M216.476,130.929h-2.978"/><path class="cls-5" d="M216.735,132.92h-2.977"/><path class="cls-5" d="M216.995,134.913h-2.977"/><path class="cls-5" d="M217.255,136.904h-2.978"/><path class="cls-5" d="M217.515,138.897h-2.978"/><path class="cls-5" d="M217.772,140.888h-2.977"/><path class="cls-5" d="M218.034,142.88h-2.977"/><path class="cls-5" d="M218.292,144.872h-2.978"/><path class="cls-5" d="M218.552,146.864h-2.978"/><path class="cls-2" d="M147.596,103.598c0-14.659,9.686-54.782,9.686-54.782,0,0-9.686-4.676-9.686-1.517v101.408h20.138V37.337l-4.405-5.097v6.529l-10.956,8.087"/><path class="cls-2" d="M151.4,75.922v72.789"/><path class="cls-2" d="M158.875,148.712s8.855-45.144,8.855-60.862"/><path class="cls-2" d="M163.324,38.77v85.268"/><path class="cls-2" d="M159.428,47.447v1.432"/><path class="cls-2" d="M161.172,49.834v1.432"/><path class="cls-2" d="M158.324,53.665v1.432"/><path class="cls-2" d="M159.869,55.098v1.432"/><path class="cls-2" d="M161.812,59.456v1.432"/><path class="cls-2" d="M157.137,60.888v1.432"/><path class="cls-2" d="M159.869,62.939v1.432"/><path class="cls-2" d="M156.078,67.376v1.432"/><path class="cls-2" d="M158.869,69.493v1.432"/><path class="cls-2" d="M161.172,73.859v1.432"/><path class="cls-2" d="M155.494,72.948v1.432"/><path class="cls-2" d="M157.664,76.085v1.432"/><path class="cls-2" d="M153.969,79.62v1.432"/><path class="cls-2" d="M156.48,82.974v1.432"/><path class="cls-2" d="M160.734,79.62v1.432"/><path class="cls-2" d="M159.312,85.711v1.432"/><path class="cls-2" d="M154.352,88.537v1.432"/><path class="cls-2" d="M156.48,92.464v1.432"/><path class="cls-2" d="M161.172,90.219v1.432"/><path class="cls-2" d="M159.564,96.013v1.432"/><path class="cls-2" d="M153.969,99.763v1.432"/><path class="cls-2" d="M157.363,104.004v1.432"/><path class="cls-2" d="M161.172,101.195v1.431"/><path class="cls-2" d="M159.857,105.86v1.432"/><path class="cls-2" d="M153.969,108.19v1.432"/><path class="cls-2" d="M156.078,111.804v1.431"/><path class="cls-2" d="M160.734,110.371v1.432"/><path class="cls-2" d="M158.676,115.15v1.432"/><path class="cls-2" d="M161.705,118.281v1.432"/><path class="cls-2" d="M153.094,116.195v1.431"/><path class="cls-2" d="M155.77,118.281v1.432"/><path class="cls-2" d="M154.324,122.606v1.432"/><path class="cls-2" d="M158.363,121.173v1.432"/><path class="cls-2" d="M160.246,124.542v1.432"/><path class="cls-2" d="M157.363,126.341v1.431"/><path class="cls-2" d="M153.094,128.202v1.431"/><path class="cls-2" d="M155.389,131.928v1.431"/><path class="cls-2" d="M159.285,129.156v1.431"/><path class="cls-2" d="M158.146,135.169v1.432"/><path class="cls-2" d="M153.094,136.367v1.431"/><path class="cls-2" d="M156.078,138.929v1.432"/><path class="cls-2" d="M153.969,141.822v1.432"/><path class="cls-2" d="M157.066,144.917v1.432"/><path class="cls-2" d="M153.4,145.887v1.431"/><path class="cls-2" d="M131.31,91.64c0,.849-.251,1.678-.722,2.384-.47.706-1.138,1.256-1.92,1.58s-1.642.41-2.472.244c-.83-.166-1.593-.575-2.191-1.175-.598-.6-1.006-1.365-1.171-2.198s-.08-1.695.244-2.48c.324-.784.872-1.454,1.576-1.926.703-.472,1.531-.723,2.377-.723.562,0,1.119.111,1.638.327.519.216.991.532,1.388.931.398.399.713.872.928,1.393.215.521.325,1.079.325,1.643Z"/><path class="cls-2" d="M128.056,95.813c-.929-.231-1.754-.766-2.343-1.522-.59-.756-.91-1.687-.91-2.647s.32-1.891.91-2.647c.589-.756,1.414-1.291,2.343-1.522"/><path class="cls-2" d="M125.037,87.841h2.052"/><path class="cls-2" d="M123.918,88.694h2.105"/><path class="cls-2" d="M123.293,89.547h2.051"/><path class="cls-2" d="M122.932,90.402h2.051"/><path class="cls-2" d="M122.766,91.255h2.062"/><path class="cls-2" d="M122.777,92.108h2.052"/><path class="cls-2" d="M122.959,92.961h2.05"/><path class="cls-2" d="M123.34,93.814h2.05"/><path class="cls-2" d="M123.998,94.667h2.051"/><path class="cls-2" d="M125.068,95.52h2.186"/><path class="cls-2" d="M135.16,112.866c.187,1.166.118,2.359-.201,3.497-.319,1.137-.881,2.191-1.648,3.088-.766.897-1.718,1.616-2.789,2.107-1.072.491-2.237.742-3.415.736-1.178-.007-2.34-.27-3.406-.773-1.066-.502-2.01-1.231-2.767-2.137-.757-.905-1.308-1.965-1.615-3.106-.307-1.14-.362-2.334-.163-3.498"/><path class="cls-2" d="M119.514,111.417c.567-1.583,1.61-2.952,2.985-3.917,1.374-.964,3.013-1.478,4.691-1.47,1.678.008,3.312.538,4.678,1.516,1.365.978,2.395,2.357,2.946,3.946"/><path class="cls-2" d="M123.631,110.843c.526-1.177,1.323-2.213,2.326-3.021,1.003-.808,2.183-1.365,3.442-1.627"/><path class="cls-2" d="M129.093,122.066c-1.04-.258-2.018-.721-2.879-1.36s-1.587-1.443-2.137-2.365c-.55-.923-.912-1.945-1.067-3.008-.154-1.063-.097-2.147.168-3.188"/><path class="cls-2" d="M123.369,106.967h3.888"/><path class="cls-2" d="M121.252,108.584h3.991"/><path class="cls-2" d="M120.066,110.201h3.887"/><path class="cls-2" d="M119.066,113.436h3.909"/><path class="cls-2" d="M119.088,115.053h3.888"/><path class="cls-2" d="M119.432,116.671h3.886"/><path class="cls-2" d="M120.156,118.288h3.887"/><path class="cls-2" d="M121.402,119.904h3.888"/><path class="cls-2" d="M123.43,121.521h4.142"/><path class="cls-2" d="M112.748,148.713l1.637-51.155,1.637,51.155h-3.274Z"/><path class="cls-2" d="M131.052,121.301c-.506.299-.922.73-1.204,1.247-.283.517-.421,1.101-.4,1.69l.967,24.475h-6.77l.971-24.583c.02-.593-.118-1.181-.4-1.702-.282-.522-.698-.959-1.204-1.265"/><path class="cls-2" d="M135.95,113.471v-1.262c0-.812-3.994-1.473-8.916-1.473s-8.915.658-8.915,1.473v1.262"/><path class="cls-2" d="M135.24,114.047c.456-.176.71-.371.71-.575,0-.812-3.994-1.473-8.916-1.473s-8.915.659-8.915,1.473c0,.238.341.462.944.661"/><path class="cls-2" d="M124.384,95.014c.386.304.701.689.923,1.129.221.44.344.923.358,1.415l-.271,6.87c.025.49-.105.975-.373,1.385-.268.41-.659.723-1.117.895"/><path class="cls-2" d="M129.675,95.014c-.387.304-.702.689-.924,1.128-.221.44-.344.923-.358,1.415l.271,6.87c-.004.47.135.931.399,1.319s.64.686,1.078.854"/><path class="cls-2" d="M125.021,87.846c.705-.469,1.06-.863,1.088-1.584l.917-23.189.916,23.189c.029.722.382,1.114,1.088,1.584"/><path class="cls-2" d="M126.621,73.41h.819"/><path class="cls-2" d="M113.855,114.132h1.062"/><path class="cls-2" d="M104.969,94.519h1.044"/><path class="cls-2" d="M108.684,122.242c-.441.317-.793.741-1.024,1.233-.231.492-.333,1.035-.295,1.578l1.049,23.659h-5.848l1.048-23.659c.038-.543-.064-1.086-.295-1.578-.231-.492-.583-.916-1.024-1.233"/><path class="cls-2" d="M103.359,111.116c.283-.131.522-.341.688-.605.167-.263.254-.57.251-.882l1.192-26.9,1.19,26.903c-.003.312.084.619.251.882.166.264.405.474.687.605"/><path class="cls-2" d="M111.669,116.937c0,1.226-.362,2.424-1.041,3.444-.679,1.019-1.644,1.813-2.773,2.282-1.129.469-2.372.592-3.571.353-1.198-.239-2.299-.829-3.163-1.696-.864-.867-1.453-1.971-1.691-3.174-.238-1.202-.116-2.448.352-3.581.468-1.132,1.26-2.1,2.276-2.781,1.016-.681,2.211-1.045,3.433-1.045.812,0,1.615.16,2.365.471.75.311,1.432.768,2.005,1.343.574.576,1.029,1.259,1.34,2.012.31.752.47,1.558.469,2.372Z"/><path class="cls-2" d="M106.972,122.956c-1.362-.336-2.569-1.128-3.423-2.243-.854-1.116-1.304-2.49-1.276-3.897.027-1.406.531-2.761,1.428-3.843.896-1.081,2.133-1.824,3.507-2.108"/><path class="cls-2" d="M102.611,111.454h2.962"/><path class="cls-2" d="M100.996,112.685h3.039"/><path class="cls-2" d="M100.094,113.917h2.962"/><path class="cls-2" d="M99.572,115.149h2.962"/><path class="cls-2" d="M99.332,116.382h2.978"/><path class="cls-2" d="M99.348,117.614h2.961"/><path class="cls-2" d="M99.609,118.845h2.961"/><path class="cls-2" d="M100.162,120.077h2.961"/><path class="cls-2" d="M101.111,121.309h2.962"/><path class="cls-2" d="M102.656,122.541h3.156"/><path class="cls-2" d="M239.541,98.201c-5.045-1.498-10.612,0-10.82,0v-8.416s-.31-1.705,5.407-1.705,5.408,1.705,5.408,1.705l.005,8.416Z"/><path class="cls-2" d="M228.721,98.202c0,2.531,2.99,2.324,2.99,4.804v3.255"/><path class="cls-2" d="M239.543,98.202c0,2.531-2.99,2.324-2.99,4.804v3.255"/><path class="cls-2" d="M231.418,101.829c1.743-.694,3.685-.694,5.428,0"/><path class="cls-2" d="M239.54,93.951c.839-.149,1.337-.334,1.337-.534,0-.494-3.02-.894-6.745-.894s-6.747.401-6.747.894c0,.2.497.385,1.337.534"/><path class="cls-2" d="M236.943,85.701c.437-.13.695-.292.695-.468,0-.433-1.568-.784-3.502-.784s-3.502.351-3.502.784c0,.176.258.338.694.468"/><path class="cls-2" d="M239.54,95.701c.839-.149,1.337-.335,1.337-.534,0-.494-3.02-.894-6.745-.894s-6.747.401-6.747.894c0,.201.497.386,1.337.534"/><path class="cls-2" d="M239.54,97.44c.839-.149,1.337-.333,1.337-.534,0-.493-3.02-.894-6.745-.894s-6.747.401-6.747.894c0,.201.497.386,1.337.534"/><path class="cls-2" d="M237.018,148.712h-5.768l.466-34.851h4.841l.461,34.851Z"/><path class="cls-2" d="M236.552,113.861c0-.999,2.428-2.058,3.888-2.798,1.274-.646,1.039-1.459,1.039-1.459,0-.534-3.29-.969-7.348-.969s-7.348.433-7.348.969c0,0-.235.813,1.039,1.459,1.46.736,3.888,1.798,3.888,2.798"/><path class="cls-2" d="M241.48,109.604c0-1.846-4.929-1.873-4.929-3.344"/><path class="cls-2" d="M226.782,109.604c0-1.846,4.93-1.873,4.93-3.344"/><path class="cls-2" d="M236.939,84.765v3.529"/><path class="cls-2" d="M231.323,84.765v3.498"/><path class="cls-2" d="M232.481,84.541l1.651-51.993,1.651,51.993"/><path class="cls-2" d="M232.554,82.253c-.964-.105-1.616-.316-1.616-.549,0-.349,1.43-.631,3.194-.631s3.192.283,3.192.631c0,.236-.65.441-1.615.549"/><path class="cls-2" d="M232.654,78.992c-.887-.105-1.485-.29-1.485-.507,0-.323,1.325-.586,2.96-.586s2.958.262,2.958.586c0,.217-.598.407-1.485.507"/><path class="cls-2" d="M378.197,148.712h-8.012V53.387l8.012,8.037v87.288Z"/><path class="cls-2" d="M378.197,61.425l-8.012-8.037v-7.523l8.012,8.037v7.523Z"/><path class="cls-2" d="M378.197,145.534l-8.012-8.416,8.012-8.415-8.012-8.416,8.012-8.415-8.012-8.416,8.012-8.415-8.012-8.416,8.012-8.416-8.012-8.416,8.012-8.416"/><path class="cls-2" d="M370.184,63.73h-9.068v84.982h9.068V63.73Z"/><path class="cls-2" d="M362.42,70.583v-8.909"/><path class="cls-2" d="M364.035,70.583v-8.909"/><path class="cls-2" d="M365.65,70.583v-8.909"/><path class="cls-2" d="M367.266,70.583v-8.909"/><path class="cls-2" d="M368.881,70.583v-8.909"/><path class="cls-2" d="M370.184,78.982h-6.771v69.73h6.771v-69.73Z"/><path class="cls-2" d="M366.138,81.062h-1.327v1.332h1.327v-1.332Z"/><path class="cls-2" d="M368.788,81.062h-1.328v1.332h1.328v-1.332Z"/><path class="cls-2" d="M366.138,83.561h-1.327v1.332h1.327v-1.332Z"/><path class="cls-2" d="M368.788,83.561h-1.328v1.332h1.328v-1.332Z"/><path class="cls-2" d="M366.138,86.062h-1.327v1.332h1.327v-1.332Z"/><path class="cls-2" d="M368.788,86.062h-1.328v1.332h1.328v-1.332Z"/><path class="cls-2" d="M366.138,88.561h-1.327v1.332h1.327v-1.332Z"/><path class="cls-2" d="M368.788,88.561h-1.328v1.332h1.328v-1.332Z"/><path class="cls-2" d="M366.138,91.062h-1.327v1.332h1.327v-1.332Z"/><path class="cls-2" d="M368.788,91.062h-1.328v1.332h1.328v-1.332Z"/><path class="cls-2" d="M366.138,93.561h-1.327v1.332h1.327v-1.332Z"/><path class="cls-2" d="M368.788,93.561h-1.328v1.332h1.328v-1.332Z"/><path class="cls-2" d="M366.138,96.062h-1.327v1.332h1.327v-1.332Z"/><path class="cls-2" d="M368.788,96.062h-1.328v1.332h1.328v-1.332Z"/><path class="cls-2" d="M366.138,98.561h-1.327v1.332h1.327v-1.332Z"/><path class="cls-2" d="M368.788,98.561h-1.328v1.332h1.328v-1.332Z"/><path class="cls-2" d="M366.138,101.062h-1.327v1.332h1.327v-1.332Z"/><path class="cls-2" d="M368.788,101.062h-1.328v1.332h1.328v-1.332Z"/><path class="cls-2" d="M366.138,103.561h-1.327v1.332h1.327v-1.332Z"/><path class="cls-2" d="M368.788,103.561h-1.328v1.332h1.328v-1.332Z"/><path class="cls-2" d="M366.138,106.062h-1.327v1.331h1.327v-1.331Z"/><path class="cls-2" d="M368.788,106.062h-1.328v1.331h1.328v-1.331Z"/><path class="cls-2" d="M366.138,108.561h-1.327v1.332h1.327v-1.332Z"/><path class="cls-2" d="M368.788,108.561h-1.328v1.332h1.328v-1.332Z"/><path class="cls-2" d="M366.138,111.062h-1.327v1.331h1.327v-1.331Z"/><path class="cls-2" d="M368.788,111.062h-1.328v1.331h1.328v-1.331Z"/><path class="cls-2" d="M366.138,113.561h-1.327v1.332h1.327v-1.332Z"/><path class="cls-2" d="M368.788,113.561h-1.328v1.332h1.328v-1.332Z"/><path class="cls-2" d="M366.138,116.06h-1.327v1.332h1.327v-1.332Z"/><path class="cls-2" d="M368.788,116.06h-1.328v1.332h1.328v-1.332Z"/><path class="cls-2" d="M366.138,118.561h-1.327v1.332h1.327v-1.332Z"/><path class="cls-2" d="M368.788,118.561h-1.328v1.332h1.328v-1.332Z"/><path class="cls-2" d="M366.138,121.06h-1.327v1.332h1.327v-1.332Z"/><path class="cls-2" d="M368.788,121.06h-1.328v1.332h1.328v-1.332Z"/><path class="cls-2" d="M366.138,123.561h-1.327v1.331h1.327v-1.331Z"/><path class="cls-2" d="M368.788,123.561h-1.328v1.331h1.328v-1.331Z"/><path class="cls-2" d="M366.138,126.06h-1.327v1.332h1.327v-1.332Z"/><path class="cls-2" d="M368.788,126.06h-1.328v1.332h1.328v-1.332Z"/><path class="cls-2" d="M366.138,128.561h-1.327v1.332h1.327v-1.332Z"/><path class="cls-2" d="M368.788,128.561h-1.328v1.332h1.328v-1.332Z"/><path class="cls-2" d="M366.138,131.06h-1.327v1.332h1.327v-1.332Z"/><path class="cls-2" d="M368.788,131.06h-1.328v1.332h1.328v-1.332Z"/><path class="cls-2" d="M366.138,133.561h-1.327v1.331h1.327v-1.331Z"/><path class="cls-2" d="M368.788,133.561h-1.328v1.331h1.328v-1.331Z"/><path class="cls-2" d="M366.138,136.06h-1.327v1.332h1.327v-1.332Z"/><path class="cls-2" d="M368.788,136.06h-1.328v1.332h1.328v-1.332Z"/><path class="cls-2" d="M366.138,138.561h-1.327v1.331h1.327v-1.331Z"/><path class="cls-2" d="M368.788,138.561h-1.328v1.331h1.328v-1.331Z"/><path class="cls-2" d="M366.138,141.06h-1.327v1.332h1.327v-1.332Z"/><path class="cls-2" d="M368.788,141.06h-1.328v1.332h1.328v-1.332Z"/><path class="cls-2" d="M366.138,143.561h-1.327v1.331h1.327v-1.331Z"/><path class="cls-2" d="M368.788,143.561h-1.328v1.331h1.328v-1.331Z"/><path class="cls-2" d="M366.138,146.06h-1.327v1.332h1.327v-1.332Z"/><path class="cls-2" d="M368.788,146.06h-1.328v1.332h1.328v-1.332Z"/><path class="cls-2" d="M370.184,54.743h-5.373v8.987h5.373v-8.987Z"/><path class="cls-2" d="M370.184,53.154h-4.046v1.589h4.046v-1.589Z"/><path class="cls-2" d="M371.738,47.422l-1.553-1.558v-12.097h1.553v13.655Z"/><path class="cls-2" d="M33.577,148.712c2.576-19.359,4.047-38.849,4.405-58.377.401-30.401-11.78-58.613-17.124-53.606-9.113,8.537-5.374,105.354-5.374,111.983h18.093Z"/><path class="cls-2" d="M22.16,36.15s18.509,15.043,7.395,112.558"/><path class="cls-2" d="M22.16,36.15s14.12,15.143,5.384,112.558"/><path class="cls-2" d="M22.16,36.15s10.409,11.925,3.375,112.558"/><path class="cls-2" d="M22.16,36.15s4.953,14.036,1.363,112.558"/><path class="cls-2" d="M22.161,36.15s-8.67,7.095-4.665,112.558"/><path class="cls-2" d="M22.16,36.15s-4.354,8.543-2.656,112.558"/><path class="cls-2" d="M22.161,36.15s0,8.982-.645,112.558"/><path class="cls-2" d="M26.99,44.816h2.382"/><path class="cls-2" d="M28.44,49.284h2.78"/><path class="cls-2" d="M29.574,53.75h3.169"/><path class="cls-2" d="M30.477,58.218h3.547"/><path class="cls-2" d="M31.201,62.685h3.903"/><path class="cls-2" d="M31.775,67.152h4.226"/><path class="cls-2" d="M32.227,71.619h4.502"/><path class="cls-2" d="M32.57,76.087h4.721"/><path class="cls-2" d="M32.822,80.553h4.869"/><path class="cls-2" d="M32.98,85.021h4.945"/><path class="cls-2" d="M33.109,89.487h5.003"/><path class="cls-2" d="M33.109,93.955h4.817"/><path class="cls-2" d="M33.072,98.421h4.72"/><path class="cls-2" d="M32.98,102.889h4.642"/><path class="cls-2" d="M32.836,107.356h4.573"/><path class="cls-2" d="M32.643,111.823h4.51"/><path class="cls-2" d="M32.389,116.29h4.469"/><path class="cls-2" d="M32.125,120.757h4.4"/><path class="cls-2" d="M31.805,125.224h4.349"/><path class="cls-2" d="M31.447,129.692h4.299"/><path class="cls-2" d="M31.055,134.158h4.309"/><path class="cls-2" d="M30.629,138.626h4.193"/><path class="cls-2" d="M30.172,143.093h4.129"/><path class="cls-2" d="M29.685,147.56h4.048"/><path class="cls-2" d="M60.834,75.79h-9.738v72.871h9.738v-72.871Z"/><path class="cls-2" d="M58.821,78.373h-5.71v1.69h5.71v-1.69Z"/><path class="cls-2" d="M58.821,82.249h-5.71v6.944h5.71v-6.944Z"/><path class="cls-2" d="M53.111,89.194h5.71"/><path class="cls-2" d="M53.111,91.898h5.71"/><path class="cls-2" d="M53.111,94.604h5.71"/><path class="cls-2" d="M53.111,97.31h5.71"/><path class="cls-2" d="M53.111,100.014h5.71"/><path class="cls-2" d="M53.111,102.72h5.71"/><path class="cls-2" d="M53.111,105.425h5.71"/><path class="cls-2" d="M53.111,108.13h5.71"/><path class="cls-2" d="M53.111,110.836h5.71"/><path class="cls-2" d="M53.111,113.54h5.71"/><path class="cls-2" d="M53.111,116.246h5.71"/><path class="cls-2" d="M53.111,118.952h5.71"/><path class="cls-2" d="M53.111,121.656h5.71"/><path class="cls-2" d="M53.111,124.362h5.71"/><path class="cls-2" d="M53.111,127.067h5.71"/><path class="cls-2" d="M53.111,129.772h5.71"/><path class="cls-2" d="M53.111,132.478h5.71"/><path class="cls-2" d="M53.111,135.183h5.71"/><path class="cls-2" d="M53.111,137.888h5.71"/><path class="cls-2" d="M53.111,140.593h5.71"/><path class="cls-2" d="M53.111,143.299h5.71"/><path class="cls-2" d="M53.111,146.003h5.71"/><path class="cls-2" d="M84.811,78.373h-5.709v1.69h5.709v-1.69Z"/><path class="cls-2" d="M84.811,82.249h-5.709v6.944h5.709v-6.944Z"/><path class="cls-2" d="M79.102,89.194h5.709"/><path class="cls-2" d="M79.102,91.898h5.709"/><path class="cls-2" d="M79.102,94.604h5.709"/><path class="cls-2" d="M79.102,97.31h5.709"/><path class="cls-2" d="M79.102,100.014h5.709"/><path class="cls-2" d="M79.102,102.72h5.709"/><path class="cls-2" d="M79.102,105.425h5.709"/><path class="cls-2" d="M79.102,108.13h5.709"/><path class="cls-2" d="M79.102,110.836h5.709"/><path class="cls-2" d="M79.102,113.54h5.709"/><path class="cls-2" d="M79.102,116.246h5.709"/><path class="cls-2" d="M79.102,118.952h5.709"/><path class="cls-2" d="M79.102,121.656h5.709"/><path class="cls-2" d="M79.102,124.362h5.709"/><path class="cls-2" d="M79.102,127.067h5.709"/><path class="cls-2" d="M79.102,129.772h5.709"/><path class="cls-2" d="M79.102,132.478h5.709"/><path class="cls-2" d="M79.102,135.183h5.709"/><path class="cls-2" d="M79.102,137.888h5.709"/><path class="cls-2" d="M79.102,140.593h5.709"/><path class="cls-2" d="M79.102,143.299h5.709"/><path class="cls-2" d="M79.102,146.003h5.709"/><path class="cls-2" d="M86.826,75.79h-9.738v72.871h9.738v-72.871Z"/><path class="cls-2" d="M77.088,128.315h-16.254v20.345h16.254v-20.345Z"/><path class="cls-2" d="M77.088,110.836h-16.254v13.526h16.254v-13.526Z"/><path class="cls-2" d="M77.088,94.534h-16.254v16.302h16.254v-16.302Z"/><path class="cls-2" d="M77.088,75.79h-16.254v18.744h16.254v-18.744Z"/><path class="cls-2" d="M66.064,75.79v6.025"/><path class="cls-2" d="M67.996,75.79v6.025"/><path class="cls-2" d="M69.928,75.79v6.025"/><path class="cls-2" d="M71.857,75.79v6.025"/><path class="cls-2" d="M67.996,64.754v11.036"/><path class="cls-2" d="M69.926,64.754v11.036"/><path class="cls-2" d="M71.857,64.754h-5.792v11.036h5.792v-11.036Z"/><path class="cls-2" d="M77.088,67.151h-5.23v8.639h5.23v-8.639Z"/><path class="cls-2" d="M66.064,67.151h-5.23v8.639h5.23v-8.639Z"/><path class="cls-5" d="M30.045,155.457h101.667"/><path class="cls-5" d="M217.43,155.457h60.493"/><path class="cls-5" d="M147.979,164.699h93.692"/><path class="cls-5" d="M68.529,172.4h49.176"/><path class="cls-5" d="M267.554,172.4h95.325"/><path class="cls-2" d="M10.296,24.946c0-.275-.082-.544-.234-.772-.152-.229-.369-.407-.622-.512-.253-.105-.532-.132-.801-.079-.269.054-.516.186-.71.381-.194.194-.326.442-.379.712-.054.27-.026.549.079.803.105.254.282.471.51.624.228.153.496.235.77.235h4.018"/><path class="cls-2" d="M48.314,3.37c0-.275-.081-.544-.234-.773-.152-.229-.369-.407-.622-.512-.253-.105-.532-.133-.801-.079-.269.054-.516.186-.71.381-.194.194-.326.442-.379.712-.054.27-.026.549.079.803.105.254.283.471.511.624.228.153.496.234.77.234h4.018"/><path class="cls-2" d="M117.951,33.763c0-.275-.082-.544-.234-.773s-.369-.407-.622-.512c-.254-.105-.532-.133-.801-.079-.269.054-.516.186-.71.381-.194.194-.326.442-.38.712-.053.27-.026.549.079.803.105.254.283.471.511.624.228.153.496.234.77.234h4.018"/><path class="cls-2" d="M161.349,13.18c0-.275-.081-.544-.234-.773-.152-.229-.368-.407-.622-.512-.253-.105-.532-.133-.801-.079-.269.054-.516.186-.71.381s-.326.442-.379.712c-.054.27-.026.549.079.804.105.254.282.471.51.624.228.153.496.234.771.234h4.018"/><path class="cls-2" d="M221.242,55.707c0-.275-.082-.544-.234-.773-.152-.229-.369-.407-.622-.512-.253-.105-.532-.133-.801-.079-.269.054-.516.186-.71.38s-.326.442-.379.712c-.054.27-.027.549.078.803.105.254.282.471.51.624.228.153.496.235.77.235h4.021"/><path class="cls-2" d="M256.023,13.819c0-.275-.081-.544-.234-.773-.152-.229-.369-.407-.622-.512-.253-.105-.532-.133-.801-.079-.269.054-.516.186-.71.381s-.326.442-.379.712c-.054.27-.026.549.079.804s.282.471.51.624c.228.153.496.234.771.234h4.017"/><path class="cls-2" d="M304.744,38.77c0-.275-.082-.544-.234-.773-.152-.229-.369-.407-.622-.512-.254-.105-.532-.133-.801-.079-.269.054-.516.186-.71.381-.194.194-.326.442-.38.712-.053.27-.026.549.079.804.105.254.283.471.511.624s.496.234.77.234h4.018"/><path class="cls-2" d="M335.982,72.111c0-.275-.081-.544-.234-.772-.152-.229-.368-.407-.622-.512-.253-.105-.532-.133-.801-.079-.269.054-.516.186-.71.38-.193.194-.326.442-.379.712-.054.27-.027.549.078.803.105.254.283.471.51.624.228.153.496.235.77.235h4.018"/><path class="cls-2" d="M345.742,5.431c0-.275-.082-.544-.234-.773-.152-.229-.369-.407-.622-.512-.254-.105-.532-.133-.801-.079-.269.054-.516.186-.71.381s-.326.442-.38.712c-.053.27-.026.549.079.803.105.254.283.471.511.624s.496.234.77.234h4.018"/><path class="cls-2" d="M387.96,29.468c0-.275-.082-.544-.234-.773-.152-.229-.369-.407-.622-.512-.254-.105-.533-.133-.801-.079-.269.054-.516.186-.71.381-.194.194-.326.442-.38.712-.053.27-.026.549.079.803.105.254.283.471.511.624.228.153.496.234.77.234h4.018"/><path class="cls-4" d="M8.308,68.092c0,.156-.046.309-.132.439-.086.13-.209.231-.353.291s-.302.076-.455.045c-.153-.03-.293-.105-.403-.216-.11-.11-.185-.251-.216-.404-.03-.153-.015-.312.045-.456.06-.144.16-.267.29-.354.129-.087.281-.133.437-.133.208,0,.408.083.556.231.147.148.23.348.231.557Z"/><path class="cls-4" d="M8.308,68.092c0,.156-.046.309-.132.439-.086.13-.209.231-.353.291s-.302.076-.455.045c-.153-.03-.293-.105-.403-.216-.11-.11-.185-.251-.216-.404-.03-.153-.015-.312.045-.456.06-.144.16-.267.29-.354.129-.087.281-.133.437-.133.208,0,.408.083.556.231.147.148.23.348.231.557Z"/><path class="cls-4" d="M6.708,1.188c0,.156-.046.308-.132.438-.086.13-.209.231-.353.29-.144.06-.301.075-.454.045-.152-.03-.292-.105-.402-.216-.11-.11-.185-.251-.215-.403-.03-.153-.015-.311.045-.455.059-.144.16-.267.289-.354.129-.087.281-.133.436-.133.208,0,.408.083.555.231.147.148.23.348.23.557Z"/><path class="cls-4" d="M6.708,1.188c0,.156-.046.308-.132.438-.086.13-.209.231-.353.29-.144.06-.301.075-.454.045-.152-.03-.292-.105-.402-.216-.11-.11-.185-.251-.215-.403-.03-.153-.015-.311.045-.455.059-.144.16-.267.289-.354.129-.087.281-.133.436-.133.208,0,.408.083.555.231.147.148.23.348.23.557Z"/><path class="cls-4" d="M75.026,11c0,.156-.046.308-.132.438-.086.13-.209.231-.353.29-.144.06-.301.075-.454.045-.152-.03-.292-.106-.402-.216-.11-.11-.185-.251-.215-.403-.03-.153-.015-.311.045-.455.059-.144.16-.267.289-.354.129-.087.281-.133.436-.133.208,0,.408.083.555.231.147.148.23.348.23.557Z"/><path class="cls-4" d="M75.026,11c0,.156-.046.308-.132.438-.086.13-.209.231-.353.29-.144.06-.301.075-.454.045-.152-.03-.292-.106-.402-.216-.11-.11-.185-.251-.215-.403-.03-.153-.015-.311.045-.455.059-.144.16-.267.289-.354.129-.087.281-.133.436-.133.208,0,.408.083.555.231.147.148.23.348.23.557Z"/><path class="cls-4" d="M96.948,55.815c0,.156-.046.308-.133.438-.086.129-.209.23-.353.29-.144.059-.302.075-.454.044s-.292-.106-.402-.216c-.11-.11-.184-.251-.215-.403-.03-.153-.015-.311.045-.455.06-.144.16-.267.289-.353.129-.087.281-.133.436-.133.208,0,.408.084.556.231.147.148.23.348.23.558Z"/><path class="cls-4" d="M96.948,55.815c0,.156-.046.308-.133.438-.086.129-.209.23-.353.29-.144.059-.302.075-.454.044s-.292-.106-.402-.216c-.11-.11-.184-.251-.215-.403-.03-.153-.015-.311.045-.455.06-.144.16-.267.289-.353.129-.087.281-.133.436-.133.208,0,.408.084.556.231.147.148.23.348.23.558Z"/><path class="cls-4" d="M195.61,31.66c0,.156-.046.309-.132.438-.087.13-.21.231-.353.291-.144.06-.302.075-.455.045-.152-.03-.293-.106-.403-.216-.11-.11-.184-.251-.215-.404-.03-.153-.015-.312.045-.456.06-.144.16-.267.29-.354.129-.087.281-.133.437-.133.208,0,.408.083.556.231.147.148.23.349.23.558Z"/><path class="cls-4" d="M195.61,31.66c0,.156-.046.309-.132.438-.087.13-.21.231-.353.291-.144.06-.302.075-.455.045-.152-.03-.293-.106-.403-.216-.11-.11-.184-.251-.215-.404-.03-.153-.015-.312.045-.456.06-.144.16-.267.29-.354.129-.087.281-.133.437-.133.208,0,.408.083.556.231.147.148.23.349.23.558Z"/><path class="cls-4" d="M264.845,33.339c0,.156-.046.308-.132.438-.086.13-.209.231-.352.29-.144.06-.302.075-.454.045-.152-.03-.292-.105-.402-.215-.11-.11-.185-.25-.215-.403-.031-.153-.015-.311.044-.455.059-.144.16-.267.289-.354.129-.087.281-.133.436-.133.208,0,.408.083.556.231.147.148.23.348.23.557Z"/><path class="cls-4" d="M264.845,33.339c0,.156-.046.308-.132.438-.086.13-.209.231-.352.29-.144.06-.302.075-.454.045-.152-.03-.292-.105-.402-.215-.11-.11-.185-.25-.215-.403-.031-.153-.015-.311.044-.455.059-.144.16-.267.289-.354.129-.087.281-.133.436-.133.208,0,.408.083.556.231.147.148.23.348.23.557Z"/><path class="cls-4" d="M179.925,77.516c0,.156-.046.308-.133.438-.086.13-.209.231-.352.29-.144.06-.302.075-.454.045-.153-.03-.293-.105-.402-.216-.11-.11-.185-.251-.215-.403-.031-.153-.015-.311.044-.455.06-.144.16-.267.29-.354.129-.087.281-.133.436-.133.208,0,.408.083.556.231.147.148.23.348.23.557Z"/><path class="cls-4" d="M179.925,77.516c0,.156-.046.308-.133.438-.086.13-.209.231-.352.29-.144.06-.302.075-.454.045-.153-.03-.293-.105-.402-.216-.11-.11-.185-.251-.215-.403-.031-.153-.015-.311.044-.455.06-.144.16-.267.29-.354.129-.087.281-.133.436-.133.208,0,.408.083.556.231.147.148.23.348.23.557Z"/><path class="cls-4" d="M248.781,129.871c0,.155-.046.308-.133.437-.086.13-.209.23-.353.29-.143.059-.301.075-.453.044-.153-.03-.293-.105-.402-.216-.11-.11-.185-.25-.215-.403s-.015-.311.045-.455c.059-.144.16-.267.289-.354.129-.086.281-.132.436-.132.104,0,.206.02.301.06.096.039.182.098.255.171s.131.16.171.256c.039.095.059.198.059.302Z"/><path class="cls-4" d="M248.781,129.871c0,.155-.046.308-.133.437-.086.13-.209.23-.353.29-.143.059-.301.075-.453.044-.153-.03-.293-.105-.402-.216-.11-.11-.185-.25-.215-.403s-.015-.311.045-.455c.059-.144.16-.267.289-.354.129-.086.281-.132.436-.132.104,0,.206.02.301.06.096.039.182.098.255.171s.131.16.171.256c.039.095.059.198.059.302Z"/><path class="cls-4" d="M298.523,78.446c0,.156-.046.309-.132.438-.087.13-.209.231-.353.291-.144.06-.302.075-.455.045-.152-.031-.292-.106-.402-.216-.11-.11-.185-.251-.216-.404-.03-.153-.014-.312.045-.456.06-.144.16-.267.29-.354.129-.087.281-.133.437-.133.103,0,.205.02.301.06.095.04.182.098.255.171.073.073.131.16.171.256.039.096.059.198.059.302Z"/><path class="cls-4" d="M298.523,78.446c0,.156-.046.309-.132.438-.087.13-.209.231-.353.291-.144.06-.302.075-.455.045-.152-.031-.292-.106-.402-.216-.11-.11-.185-.251-.216-.404-.03-.153-.014-.312.045-.456.06-.144.16-.267.29-.354.129-.087.281-.133.437-.133.103,0,.205.02.301.06.095.04.182.098.255.171.073.073.131.16.171.256.039.096.059.198.059.302Z"/><path class="cls-4" d="M320.716,8.401c.435,0,.787-.353.787-.789s-.352-.789-.787-.789-.786.353-.786.789.352.789.786.789Z"/><path class="cls-4" d="M320.716,8.401c.435,0,.787-.353.787-.789s-.352-.789-.787-.789-.786.353-.786.789.352.789.786.789Z"/><path class="cls-4" d="M372.826,3.561c.434,0,.786-.353.786-.789s-.352-.789-.786-.789-.787.353-.787.789.352.789.787.789Z"/><path class="cls-4" d="M372.826,3.561c.434,0,.786-.353.786-.789s-.352-.789-.786-.789-.787.353-.787.789.352.789.787.789Z"/><path class="cls-4" d="M393.792,100.261c0,.157-.046.309-.132.439-.086.13-.209.231-.353.291-.144.06-.302.076-.455.045-.152-.03-.292-.105-.403-.215-.11-.111-.185-.251-.215-.404s-.015-.312.045-.456c.059-.144.16-.268.289-.354.13-.087.282-.133.437-.133.209,0,.409.083.556.23.148.148.231.348.231.557Z"/><path class="cls-4" d="M393.792,100.261c0,.157-.046.309-.132.439-.086.13-.209.231-.353.291-.144.06-.302.076-.455.045-.152-.03-.292-.105-.403-.215-.11-.111-.185-.251-.215-.404s-.015-.312.045-.456c.059-.144.16-.268.289-.354.13-.087.282-.133.437-.133.209,0,.409.083.556.23.148.148.231.348.231.557Z"/><path class="cls-3" d="M61.196,36.799c-.145.012-.279.079-.377.186-.098.107-.153.247-.153.393s.054.286.153.393c.098.107.233.174.377.186.144-.012.279-.079.377-.186.098-.107.153-.247.153-.393s-.054-.286-.153-.393c-.098-.107-.233-.173-.377-.186Z"/><path class="cls-3" d="M1.03,111.989c-.144.012-.279.078-.377.185-.098.108-.153.248-.153.393,0,.146.054.286.153.393.098.107.233.173.377.186.144-.013.279-.079.377-.186.098-.107.153-.247.153-.393,0-.145-.054-.285-.153-.393-.098-.107-.233-.173-.377-.185Z"/><path class="cls-3" d="M109.237,4.851c-.145.012-.279.079-.377.186-.099.107-.153.247-.153.393s.054.286.153.393c.098.107.232.173.377.186.144-.012.279-.079.377-.186.098-.107.152-.247.152-.393s-.054-.286-.152-.393c-.098-.107-.233-.173-.377-.186Z"/><path class="cls-3" d="M196.352,2.771c-.145.012-.279.079-.377.186-.098.107-.153.247-.153.393s.055.286.153.393c.098.107.232.173.377.186.144-.012.279-.079.377-.186.098-.107.153-.247.153-.393s-.055-.286-.153-.393c-.098-.107-.233-.173-.377-.186Z"/><path class="cls-3" d="M232.872,29.469c-.145.012-.28.079-.378.186-.098.107-.152.247-.152.393s.054.286.152.393c.098.107.233.173.378.186.144-.012.279-.079.377-.186.098-.107.152-.247.152-.393s-.054-.286-.152-.393c-.098-.107-.233-.173-.377-.186Z"/><path class="cls-3" d="M273.099,1.037c-.144.012-.279.079-.377.186-.098.107-.153.247-.153.393s.055.286.153.393c.098.107.233.173.377.186.145-.012.279-.079.377-.186.098-.107.153-.247.153-.393s-.055-.286-.153-.393c-.098-.107-.232-.173-.377-.186Z"/><path class="cls-3" d="M290.134,129.705c-.144.012-.279.078-.377.185-.098.108-.153.248-.153.393,0,.146.055.286.153.393.098.107.233.173.377.186.145-.013.279-.079.377-.186.098-.107.153-.247.153-.393,0-.145-.055-.285-.153-.393-.098-.107-.232-.173-.377-.185Z"/><path class="cls-3" d="M345.67,31.66c-.144.012-.279.079-.377.186-.098.107-.152.247-.152.393s.054.286.152.393c.098.107.233.174.377.186.145-.012.279-.079.377-.186.099-.107.153-.247.153-.393s-.054-.286-.153-.393c-.098-.107-.232-.173-.377-.186Z"/><path class="cls-3" d="M391.071,61.57c-.145.012-.279.079-.378.186-.098.107-.152.247-.152.393s.054.286.152.393c.099.107.233.174.378.186.144-.012.279-.079.377-.186.098-.107.152-.247.152-.393s-.054-.286-.152-.393c-.098-.107-.233-.173-.377-.186Z"/><path class="cls-3" d="M385.743,127.735c-.145.013-.279.079-.378.186-.098.107-.152.247-.152.393,0,.145.054.285.152.393.099.107.233.173.378.185.144-.012.279-.078.377-.185.098-.108.152-.248.152-.393,0-.146-.054-.286-.152-.393-.098-.107-.233-.173-.377-.186Z"/><path class="cls-3" d="M201.883,131.059c-.144.012-.279.078-.377.185-.098.108-.152.248-.152.393,0,.146.054.286.152.393.098.107.233.173.377.186.145-.013.279-.079.377-.186.098-.107.153-.247.153-.393,0-.145-.055-.285-.153-.393-.098-.107-.232-.173-.377-.185Z"/><path class="cls-3" d="M94.805,90.674c-.145.012-.279.079-.377.186-.098.107-.153.247-.153.393s.054.286.153.393c.098.107.233.174.377.186.145-.012.279-.079.377-.186.098-.107.153-.247.153-.393s-.055-.286-.153-.393c-.098-.107-.233-.173-.377-.186Z"/><path class="cls-3" d="M43.1,132.779c-.144.012-.279.078-.377.185-.098.107-.153.248-.153.393,0,.146.054.286.153.393.098.107.233.173.377.186.145-.013.279-.079.377-.186.098-.107.153-.247.153-.393,0-.145-.054-.286-.153-.393-.098-.107-.233-.173-.377-.185Z"/><path class="cls-3" d="M142.416,69.692c-.144.012-.279.079-.377.186-.098.107-.152.247-.152.393s.054.286.152.393c.098.107.233.173.377.186.145-.012.279-.079.378-.186.098-.107.152-.247.152-.393s-.054-.286-.152-.393c-.099-.107-.233-.174-.378-.186Z"/><path class="cls-3" d="M223.872,81.815c-.145.012-.28.079-.378.186-.098.107-.152.247-.152.393s.054.286.152.393c.098.107.233.173.378.186.144-.012.279-.079.377-.186.098-.107.152-.247.152-.393s-.054-.286-.152-.393c-.098-.107-.233-.173-.377-.186Z"/></g></svg>